<?xml version="1.0" encoding="iso-8859-1"?>
<!-- Generator: Adobe Illustrator 27.2.0, SVG Export Plug-In . SVG Version: 6.00 Build 0)  -->
<svg version="1.1" id="Capa_1" xmlns="http://www.w3.org/2000/svg" xmlns:xlink="http://www.w3.org/1999/xlink" x="0px" y="0px"
	 viewBox="0 0 512.005 512.005" style="enable-background:new 0 0 512.005 512.005;" xml:space="preserve">
<g>
	<g>
		<path d="M286.501,379.843h-59.996c-14.575-0.572-14.602-21.417,0-22c0,0,59.996,0,59.996,0c6.075,0,11,4.925,11,11
			S292.576,379.843,286.501,379.843z"/>
	</g>
	<g>
		<path d="M122.845,379.843c0,0-111.843,0-111.843,0c-6.075,0-11-4.925-11-11c0,0,0-357.843,0-357.843c0-6.075,4.925-11,11-11
			c0,0,388.34,0,388.34,0c6.075,0,11,4.925,11,11c0,0,0,49.83,0,49.83c-0.609,14.647-21.448,14.531-22,0c0,0,0-38.83,0-38.83H22.003
			v335.843h100.843C137.43,358.418,137.439,379.263,122.845,379.843z"/>
	</g>
	<path style="fill:#33CCCC;" d="M446.328,152.783c34.131-39.29,5.544-102.166-46.987-101.953
		c-52.34-0.22-81.006,62.304-47.239,101.659H215.338c-22.882,0-41.498,18.616-41.498,41.498s18.616,41.498,41.498,41.498h110.992
		v72.527c-48.656,8.526-67.982,69.816-32.666,104.562c-15.706,5.397-28.969,16.074-37.662,29.913
		c-8.693-13.838-21.956-24.516-37.662-29.913c38.705-38.137,11.275-105.683-43.667-105.561
		c-54.939-0.122-82.371,67.435-43.665,105.561c-28.277,9.717-48.662,36.561-48.662,68.094V501c0,6.075,4.925,11,11,11
		c81.104-0.029,244.232,0.021,325.311,0c0,0,82.344,0,82.344,0c6.075,0,11-4.925,11-11c0,0,0-276.515,0-276.515
		C512.003,186.918,483.076,155.997,446.328,152.783z M359.513,112.66c0-21.962,17.867-39.83,39.829-39.83
		c52.84,2.188,52.825,77.479,0,79.659C377.38,152.489,359.513,134.622,359.513,112.66z M337.331,329.013
		c21.962,0,39.829,17.868,39.829,39.83c-2.188,52.839-77.479,52.823-79.659,0C297.501,346.881,315.369,329.013,337.331,329.013z
		 M174.674,329.013c21.962,0,39.83,17.868,39.83,39.83c-2.188,52.838-77.48,52.824-79.659,0
		C134.845,346.881,152.713,329.013,174.674,329.013z M104.347,480.668c0-27.568,22.428-49.996,49.995-49.996h40.664
		c27.568,0,49.996,22.428,49.996,49.996V490H104.347V480.668z M267.003,480.668c0-27.568,22.428-49.996,49.996-49.996h40.664
		c27.567,0,49.995,22.428,49.995,49.996V490H267.003V480.668z M490.003,490h-60.345v-9.332c0-31.533-20.385-58.376-48.662-68.094
		c35.329-34.763,15.965-96.047-32.666-104.562v-83.527c0-6.075-4.925-11-11-11H215.338c-10.751,0-19.498-8.747-19.498-19.498
		c0-10.751,8.747-19.498,19.498-19.498h224.668c27.568,0,49.996,22.428,49.996,49.996V490z"/>
</g>
<g>
</g>
<g>
</g>
<g>
</g>
<g>
</g>
<g>
</g>
<g>
</g>
<g>
</g>
<g>
</g>
<g>
</g>
<g>
</g>
<g>
</g>
<g>
</g>
<g>
</g>
<g>
</g>
<g>
</g>
</svg>
