<?xml version="1.0" encoding="iso-8859-1"?>
<!-- Generator: Adobe Illustrator 19.0.0, SVG Export Plug-In . SVG Version: 6.00 Build 0)  -->
<svg version="1.1" id="Capa_1" xmlns="http://www.w3.org/2000/svg" xmlns:xlink="http://www.w3.org/1999/xlink" x="0px" y="0px"
	 viewBox="0 0 468.293 468.293" style="enable-background:new 0 0 468.293 468.293;" xml:space="preserve">
<polygon style="fill:#44C4A1;" points="330.228,136.905 330.228,96.082 234.146,0 138.065,96.082 138.065,136.905 0,184.176 
	0,229.538 39.7,229.538 39.7,468.293 234.146,468.293 428.593,468.293 428.593,229.538 468.293,229.538 468.293,184.176 "/>
<path style="fill:#FCD462;" d="M352.755,267.434H115.538c-6.897,0-12.488-5.591-12.488-12.488v-40.744
	c0-6.897,5.591-12.488,12.488-12.488h237.217c6.897,0,12.488,5.591,12.488,12.488v40.744
	C365.243,261.843,359.652,267.434,352.755,267.434z"/>
<path style="fill:#DC8744;" d="M287.331,468.293h-106.37V358.358c0-29.373,23.812-53.185,53.185-53.185h0
	c29.373,0,53.185,23.812,53.185,53.185V468.293z"/>
<g>
	<rect x="69.182" y="343.04" style="fill:#64798A;" width="37.463" height="37.463"/>
	<rect x="119.134" y="343.04" style="fill:#64798A;" width="37.463" height="37.463"/>
	<rect x="69.182" y="392.991" style="fill:#64798A;" width="37.463" height="37.463"/>
	<rect x="119.134" y="392.991" style="fill:#64798A;" width="37.463" height="37.463"/>
	<rect x="311.696" y="343.04" style="fill:#64798A;" width="37.463" height="37.463"/>
</g>
<g>
	<rect x="305.452" y="336.671" style="fill:#3A556A;" width="100.964" height="6.244"/>
	<rect x="305.452" y="430.455" style="fill:#3A556A;" width="100.964" height="6.244"/>
	<rect x="62.42" y="336.671" style="fill:#3A556A;" width="100.964" height="6.244"/>
	<rect x="62.42" y="430.455" style="fill:#3A556A;" width="100.964" height="6.244"/>
</g>
<g>
	<rect x="361.647" y="343.04" style="fill:#64798A;" width="37.463" height="37.463"/>
	<rect x="311.696" y="392.991" style="fill:#64798A;" width="37.463" height="37.463"/>
	<rect x="361.647" y="392.991" style="fill:#64798A;" width="37.463" height="37.463"/>
</g>
<g>
	<path style="fill:#E56353;" d="M135.737,221.399c-1.788,0-3.254,0.364-4.401,1.093c-1.146,0.731-1.718,1.833-1.718,3.307
		c0,1.477,0.572,2.604,1.718,3.384c1.146,0.782,3.585,1.625,7.316,2.525c3.731,0.905,6.543,2.172,8.435,3.801
		c1.892,1.634,2.839,4.036,2.839,7.212c0,3.176-1.199,5.754-3.593,7.733c-2.396,1.979-5.538,2.968-9.424,2.968
		c-5.695,0-10.744-1.962-15.153-5.884l3.854-4.636c3.678,3.195,7.498,4.79,11.454,4.79c1.979,0,3.549-0.424,4.714-1.275
		c1.161-0.85,1.744-1.979,1.744-3.384c0-1.407-0.547-2.5-1.64-3.282c-1.093-0.78-2.977-1.492-5.651-2.134
		c-2.674-0.642-4.704-1.233-6.091-1.771c-1.39-0.538-2.621-1.239-3.697-2.108c-2.153-1.631-3.229-4.131-3.229-7.498
		c0-3.367,1.225-5.962,3.672-7.784c2.447-1.822,5.475-2.733,9.085-2.733c2.326,0,4.636,0.381,6.926,1.144
		c2.29,0.765,4.269,1.841,5.937,3.229l-3.282,4.634c-1.076-0.97-2.534-1.769-4.373-2.394
		C139.337,221.713,137.523,221.399,135.737,221.399z"/>
	<path style="fill:#E56353;" d="M174.139,247.434c2.117,0,3.939-0.354,5.466-1.066c1.528-0.712,3.125-1.85,4.79-3.411l3.958,4.062
		c-3.854,4.269-8.532,6.405-14.032,6.405c-5.502,0-10.068-1.771-13.695-5.312c-3.627-3.54-5.441-8.019-5.441-13.435
		s1.848-9.926,5.545-13.538c3.697-3.608,8.367-5.413,14.007-5.413c5.642,0,10.354,2.083,14.138,6.248l-3.907,4.269
		c-1.735-1.665-3.375-2.828-4.92-3.489c-1.545-0.659-3.358-0.989-5.441-0.989c-3.68,0-6.769,1.191-9.269,3.568
		c-2.498,2.377-3.748,5.415-3.748,9.113c0,3.697,1.239,6.786,3.723,9.267C167.793,246.194,170.736,247.434,174.139,247.434z"/>
	<path style="fill:#E56353;" d="M195.849,253.006v-36.397h6.144v15.778h18.068v-15.778h6.144v36.397h-6.144v-14.892h-18.068v14.892
		H195.849z"/>
	<path style="fill:#E56353;" d="M266.768,247.98c-3.68,3.593-8.227,5.39-13.642,5.39c-5.415,0-9.964-1.797-13.642-5.39
		c-3.68-3.591-5.519-8.07-5.519-13.432c0-5.365,1.839-9.841,5.519-13.435c3.678-3.593,8.227-5.388,13.642-5.388
		c5.415,0,9.962,1.795,13.642,5.388c3.678,3.593,5.519,8.07,5.519,13.435C272.287,239.91,270.446,244.389,266.768,247.98z
		 M262.263,225.2c-2.483-2.568-5.528-3.852-9.138-3.852c-3.61,0-6.657,1.284-9.138,3.852c-2.483,2.57-3.723,5.684-3.723,9.348
		c0,3.663,1.239,6.778,3.723,9.346c2.481,2.57,5.528,3.854,9.138,3.854c3.61,0,6.655-1.284,9.138-3.854
		c2.481-2.568,3.723-5.682,3.723-9.346C265.986,230.884,264.744,227.77,262.263,225.2z"/>
	<path style="fill:#E56353;" d="M310.506,247.98c-3.68,3.593-8.227,5.39-13.642,5.39s-9.964-1.797-13.642-5.39
		c-3.68-3.591-5.519-8.07-5.519-13.432c0-5.365,1.839-9.841,5.519-13.435c3.678-3.593,8.227-5.388,13.642-5.388
		s9.962,1.795,13.642,5.388c3.678,3.593,5.519,8.07,5.519,13.435C316.025,239.91,314.184,244.389,310.506,247.98z M306.002,225.2
		c-2.483-2.568-5.528-3.852-9.138-3.852s-6.657,1.284-9.138,3.852c-2.483,2.57-3.723,5.684-3.723,9.348
		c0,3.663,1.239,6.778,3.723,9.346c2.481,2.57,5.528,3.854,9.138,3.854s6.655-1.284,9.138-3.854
		c2.481-2.568,3.723-5.682,3.723-9.346C309.724,230.884,308.483,227.77,306.002,225.2z"/>
	<path style="fill:#E56353;" d="M323.782,253.006v-36.397h6.144v30.564h16.611v5.833H323.782z"/>
</g>
<circle style="fill:#EBF0F3;" cx="234.146" cy="105.559" r="53.367"/>
<g>
	<rect x="231.024" y="58.437" style="fill:#64798A;" width="6.244" height="6.244"/>
	<rect x="231.024" y="146.438" style="fill:#64798A;" width="6.244" height="6.244"/>
	<rect x="275.025" y="102.431" style="fill:#64798A;" width="6.244" height="6.244"/>
	<rect x="187.024" y="102.431" style="fill:#64798A;" width="6.244" height="6.244"/>
	<path style="fill:#64798A;" d="M209.058,131.576c-0.841,0-1.683-0.338-2.299-1.009c-1.168-1.268-1.082-3.244,0.186-4.412
		l23.896-21.97V82.592c0-1.726,1.396-3.122,3.122-3.122c1.726,0,3.122,1.396,3.122,3.122v22.966c0,0.875-0.366,1.707-1.009,2.299
		l-24.905,22.896C210.57,131.305,209.814,131.576,209.058,131.576z"/>
</g>
<circle style="fill:#D5D6DB;" cx="234.146" cy="105.559" r="7.805"/>
<g>
</g>
<g>
</g>
<g>
</g>
<g>
</g>
<g>
</g>
<g>
</g>
<g>
</g>
<g>
</g>
<g>
</g>
<g>
</g>
<g>
</g>
<g>
</g>
<g>
</g>
<g>
</g>
<g>
</g>
</svg>
