<svg height="512" viewBox="0 0 512 512" width="512" xmlns="http://www.w3.org/2000/svg"><g id="Chemistry"><path d="m122.28 170s0 .69.06 2c.24 9.71.32 53.57-16.11 80.83-18.55 30.79-3.8 63.09 27.14 63.78s136.1-31.77 143.63-59.41-6.66-37.35-12.6-58.77 9.29-40.92 4.42-62.8-135.65 2.21-146.54 34.37z" fill="#383333"/><path d="m321.33 133.38a24.25 24.25 0 0 0 -6.11 4.07 25.4 25.4 0 0 0 -7.41 12.78 18.81 18.81 0 0 0 -4.63-11.85 18.59 18.59 0 0 0 -9.08-5.56 17.44 17.44 0 0 0 8.34-3.52 18.12 18.12 0 0 0 6.48-11.11 16 16 0 0 0 2.78 8.71 16.35 16.35 0 0 0 9.63 6.48z" fill="#ffb833"/><path d="m298.69 146.21a8.32 8.32 0 0 0 -2.06 1.37 8.65 8.65 0 0 0 -2.5 4.31 6.17 6.17 0 0 0 -4.62-5.87 5.76 5.76 0 0 0 2.81-1.19 6.1 6.1 0 0 0 2.19-3.74 5.35 5.35 0 0 0 .93 2.93 5.51 5.51 0 0 0 3.25 2.19z" fill="#ffb833"/><path d="m322.78 122.87a5.46 5.46 0 0 0 -1.41.94 5.9 5.9 0 0 0 -1.71 2.94 4.32 4.32 0 0 0 -1.07-2.73 4.25 4.25 0 0 0 -2.09-1.28 4.07 4.07 0 0 0 1.92-.81 4.21 4.21 0 0 0 1.5-2.56 3.6 3.6 0 0 0 .64 2 3.76 3.76 0 0 0 2.22 1.5z" fill="#ffb833"/><path d="m104.5 227.06a17.23 17.23 0 0 0 -4.44 3 18.51 18.51 0 0 0 -5.39 9.29 13.31 13.31 0 0 0 -10-12.66 12.72 12.72 0 0 0 6.06-2.55 13.16 13.16 0 0 0 4.75-8.14 11.63 11.63 0 0 0 2 6.33 11.91 11.91 0 0 0 7.02 4.73z" fill="#ffb833"/><path d="m88.05 236.38a5.64 5.64 0 0 0 -1.5 1 6.24 6.24 0 0 0 -1.82 3.13 4.48 4.48 0 0 0 -3.35-4.27 4.24 4.24 0 0 0 2-.86 4.45 4.45 0 0 0 1.62-2.72 3.78 3.78 0 0 0 .68 2.13 4 4 0 0 0 2.37 1.59z" fill="#ffb833"/><path d="m105.55 219.42a4.09 4.09 0 0 0 -2.26 2.82 3.13 3.13 0 0 0 -.78-2 3.19 3.19 0 0 0 -1.52-.94 2.92 2.92 0 0 0 1.4-.59 3 3 0 0 0 1.08-1.86 2.76 2.76 0 0 0 .47 1.46 2.73 2.73 0 0 0 1.61 1.11z" fill="#ffb833"/><path d="m136.07 149.82c-.75-.73-4.86-4.59-10.74-4.16-.86.06-4.28.31-6.59 2.47-6 5.6-3.69 23.27 6.65 27.81 5.77 2.53 11.91 0 14-.93z" fill="#ff8c5f"/><path d="m129.51 170.45a.38.38 0 0 1 -.26-.11c-2.57-2.48-3.74-5.06-3.46-7.66.33-3.18 2.73-5.55 4.14-6.69l-8.72.4a.37.37 0 0 1 -.39-.35.38.38 0 0 1 .36-.4l10-.46a.38.38 0 0 1 .37.27.37.37 0 0 1 -.16.43s-4.4 2.79-4.83 6.88c-.25 2.36.84 4.73 3.24 7a.38.38 0 0 1 0 .53.36.36 0 0 1 -.29.16z" fill="#383333"/><path d="m254 149.82c.75-.73 4.86-4.59 10.74-4.16.86.06 4.28.31 6.58 2.47 6 5.6 3.7 23.27-6.64 27.81-5.77 2.53-11.91 0-14-.93z" fill="#ff8c5f"/><path d="m260.53 170.45a.36.36 0 0 1 -.27-.12.37.37 0 0 1 0-.53c2.4-2.31 3.49-4.68 3.24-7-.43-4.09-4.79-6.86-4.83-6.88a.37.37 0 0 1 -.16-.43.36.36 0 0 1 .37-.27l10 .46a.38.38 0 0 1 .36.4.37.37 0 0 1 -.39.35l-8.72-.4c1.41 1.14 3.81 3.51 4.14 6.69.28 2.6-.89 5.18-3.46 7.66a.4.4 0 0 1 -.28.07z" fill="#383333"/><circle cx="195.17" cy="135.63" fill="#ffb08d" r="69.25"/><path d="m180.52 188.56s1.37 37.12-7.56 46.74-35.74 13.06-44 31.62 20.27 85.91 0 188c0 0 66.33 48.46 175.61 0 0 0-17.53-27.84-22.68-74.23s11.34-114.44-4.13-129.9-40.2-7.22-51.55-22.69-10.21-46.1-10.21-46.1-16.24-10.28-35.48 6.56z" fill="#ffb08d"/><path d="m127.74 152.62s14.33 69.38 68.26 67.18 67.21-56.49 68.28-88.66c-.01 0-88.59-63.3-136.54 21.48z" fill="#ffb08d"/><path d="m151.65 143.75a21.76 21.76 0 0 1 12.44-4.23c3-.11 7.14-.26 8.44 2.1a3.34 3.34 0 0 1 -.05 3.36c-1.4 1.92-5 .24-10.78.26-7.62 0-12.54 3-13 1.88-.43-.78 2-2.64 2.95-3.37z" fill="#383333"/><path d="m239.41 142.6a21.73 21.73 0 0 0 -12.59-3.75c-3 0-7.15 0-8.35 2.43a3.31 3.31 0 0 0 .17 3.35c1.47 1.87 5 .05 10.79-.16 7.61-.27 12.64 2.49 13.11 1.38.34-.8-2.15-2.56-3.13-3.25z" fill="#383333"/><path d="m194.22 172.41c-1.42 0-2.61-.07-3.13-.11a.5.5 0 1 1 .07-1c3.83.27 9.49 0 10.05-1.37.64-1.58-2.43-9.57-4.51-14.23a.5.5 0 1 1 .91-.41c.57 1.28 5.53 12.52 4.53 15-.71 1.79-4.84 2.12-7.92 2.12z" fill="#383333"/><ellipse cx="155.09" cy="175.21" fill="#ff8c5f" rx="5.26" ry="8.44" transform="matrix(.005 -1 1 .005 -20.88 329.44)"/><ellipse cx="234.2" cy="175.6" fill="#ff8c5f" rx="5.26" ry="8.44" transform="matrix(.005 -1 1 .005 57.45 408.93)"/><path d="m229.08 162.28a6 6 0 1 1 -.63-8.43 6 6 0 0 1 .63 8.43z" fill="#383333" fill-rule="evenodd"/><path d="m234.41 154.25c-.13-.11-1.27 1.94-2.79 1.81-1.11-.1-1.41-1.31-2.84-2.37a7.1 7.1 0 0 0 -4.23-1.29 15.62 15.62 0 0 0 2.45 3.45c1.39 1.47 2.28 2.42 3.48 2.42 2.42 0 4.11-3.87 3.93-4.02z" fill="#383333" fill-rule="evenodd"/><path d="m172.65 165.07a6 6 0 1 1 -.14-8.45 6 6 0 0 1 .14 8.45z" fill="#383333" fill-rule="evenodd"/><path d="m158.14 157.7c.12-.12 1.45 1.81 2.94 1.55 1.1-.2 1.29-1.43 2.61-2.61a7.14 7.14 0 0 1 4.11-1.64 15.44 15.44 0 0 1 -2.14 3.67c-1.24 1.58-2 2.61-3.24 2.72-2.42.18-4.42-3.53-4.28-3.69z" fill="#383333" fill-rule="evenodd"/><path d="m197 196.2a13 13 0 0 1 -5.71-1.32.38.38 0 0 1 .32-.68 12.21 12.21 0 0 0 11-.13.37.37 0 1 1 .35.66 13 13 0 0 1 -5.42 1.46z" fill="#383333"/><path d="m193.9 219.8a77 77 0 0 1 -15-1.35.5.5 0 1 1 .21-1c.21 0 21.27 4.56 40.59-3.34a.5.5 0 0 1 .38.92 69.87 69.87 0 0 1 -26.18 4.77z" fill="#383333"/><path d="m200.57 240.57c-4.6-.83-6-3.4-12.8-7.82-8.43-5.46-10.64-6.39-12.63-5.58-2.52 1-2 3.87-5.71 7.59a23.15 23.15 0 0 1 -7.53 5c-10.13 4.3-42.42 15.59-35.72 53.42s9.54 123.88-.91 162c0 0 22 29.73 88 26.21s99.33-26.21 99.33-26.21-27.68-54.62-27.16-96.89 7.21-96.14-4.13-109.55-42.27-12.88-46.65-16c-1.48-1-3.23-6.49-7.47-7.21-3.71-.63-7.23 2.21-9.28 3.86-5.83 4.71-5.47 8.94-10.31 10.83a12.52 12.52 0 0 1 -7.03.35z" fill="#d17352"/><path d="m253.17 236.45s28.39 1.2 42.71 28 21.12 63.22 21.12 63.22l-42.45 3.33z" fill="#fff3e3"/><path d="m141.89 252.73c-14.5 12-22.19 24.14-26.4 32.42-2.22 4.35-7.06 14.71-13.65 65.07-2.73 20.85-4.07 31.34-3 34.35 11.64 32.17 74.93 40 110.8 38.94 5.74-.16 10.54-.6 14-1l2.12-28.69s-60.93-21-73.81-30.07 27.83-94.4-10.06-111.02z" fill="#ffb08d"/><path d="m213.31 389.81a100.41 100.41 0 0 0 24.19 2.76c14.17 0 19.23 11.12 31.5 15.7s22.57 4 24 7.83-29.25 11.51-76.83 7z" fill="#ffb08d"/><path d="m188.94 265.72a3.59 3.59 0 0 1 -.47 0c-6.87-1.06-20.81-27.87-21.4-29a.5.5 0 1 1 .88-.46c4 7.65 15.38 27.66 20.67 28.48s12.51-17 14.91-23.94a.51.51 0 0 1 .64-.31.5.5 0 0 1 .31.63 129.23 129.23 0 0 1 -5.24 12.58c-3.91 7.97-7.38 12.02-10.3 12.02z" fill="#383333"/><path d="m221.28 257.7c-6.44 0-13.81-16.56-14.12-17.27a.5.5 0 0 1 .26-.66.51.51 0 0 1 .66.26c2 4.64 8.39 16.67 13.2 16.67s10.94-17.39 12.92-24.09a.51.51 0 0 1 .62-.34.5.5 0 0 1 .34.63c-.75 2.54-7.51 24.8-13.88 24.8z" fill="#383333"/><path d="m161.9 239.71s31.33 75.77 37.58 101 4.52 140.96 4.52 140.96-57.56 7-84.36-28c0 0 17.35-54.71 14.6-116.79s-2.84-77.85.64-82.25 20.75-12.89 27.02-14.92z" fill="#fff3e3"/><path d="m150.31 245s-28.1 14-35.57 32.1-25.52 97.66-20.36 116.22 72.36 34 115.31 33l5.48-36.86-63.23-30s13.22-62.55 11.6-81.79-13.23-32.67-13.23-32.67z" fill="#fff3e3"/><path d="m229.46 353 50.75-65.48c16-20.69 48.46-16.26 58.36 8l31.33 76.68c9.9 24.24-10.15 50.1-36.08 46.56l-82.08-11.22c-25.94-3.54-38.31-33.81-22.28-54.54z" fill="#ffdb99"/><path d="m293.78 200.61h40.13v116.64h-40.13z" fill="#ffdb99" transform="matrix(.991 .135 -.135 .991 37.94 -40.1)"/><rect fill="#ffdb99" height="13.91" rx="6.75" transform="matrix(.991 .135 -.135 .991 30.31 -41.67)" width="58.77" x="292.23" y="195.14"/><path d="m361.05 375.84-12.46-30.52c-28.51 12-51.36-8.57-57.37-23.77-2.68-6.78-7.9-12-13.09-15.7l-41.11 53a24.45 24.45 0 0 0 16 39.21l82.08 11.21a24.45 24.45 0 0 0 25.94-33.47z" fill="#ffb833"/><circle cx="326.71" cy="326.83" fill="#ffb833" r="7.22"/><circle cx="308.72" cy="301.77" fill="#ffb833" r="10.53"/><circle cx="315.11" cy="257.58" fill="#ffb833" r="8.96"/><path d="m222.87 391.6a26.43 26.43 0 0 0 13.26-3.34c6-3.65 8-5.66 11.69-3.83s-2.92 9.32-1.46 14.62 9.37 10.24 14.85 11-12.84 6.19-12.84 6.19l-17.73-3.48s-12.99-12.53-7.77-21.16z" fill="#ffb08d"/><path d="m197.54 191a28 28 0 0 1 -18.85-7.62.5.5 0 1 1 .69-.72 26.93 26.93 0 0 0 18.85 7.34 26.6 26.6 0 0 0 17.43-7.33.5.5 0 0 1 .69.72 27.59 27.59 0 0 1 -18.09 7.61z" fill="#383333"/><path d="m222.3 317a.5.5 0 0 1 -.49-.39l-16.58-75a.52.52 0 0 1 .39-.6.5.5 0 0 1 .59.38l16.58 75a.52.52 0 0 1 -.39.6z" fill="#383333"/><circle cx="218.95" cy="267.41" fill="#383333" r="4.77"/><circle cx="224.62" cy="288.47" fill="#383333" r="4.77"/><path d="m143.69 361.48h-.13a.5.5 0 0 1 -.35-.62c6.72-23.81 8.23-41.43 8.32-52 .09-11.47-1.43-17.39-1.45-17.45a.5.5 0 1 1 1-.25c.06.24 1.56 6.06 1.48 17.65-.08 10.66-1.59 28.4-8.36 52.35a.49.49 0 0 1 -.51.32z" fill="#383333"/><path d="m204 384.24a.39.39 0 0 1 -.2-.05c-.19-.08-18.67-8.43-38.35-17.76-19.49-9.24-35.5-3.12-35.66-3.06a.5.5 0 1 1 -.37-.93c.16-.06 16.58-6.34 36.46 3.08 19.67 9.33 38.15 17.68 38.33 17.76a.51.51 0 0 1 .25.66.5.5 0 0 1 -.46.3z" fill="#383333"/><path d="m193.32 427.67c-26.92 0-63.46-12.26-63.88-12.4a.5.5 0 0 1 .32-.95c.48.16 47.84 16 74.16 11.55a.49.49 0 0 1 .58.4.5.5 0 0 1 -.41.58 64 64 0 0 1 -10.77.82z" fill="#383333"/><path d="m337.84 293.28s-25.2 2.06-22.54 6.05 19.26 3.47 19.26 3.47-15.56 2.85-14.34 5.2 8 4.05 17.92 3.23c0 0-14.06 1-11.87 4.22s17.36 3.91 17.36 3.91-11.93 1.1-9.82 3.95 21.29 5.14 24.42 1.93-5.81-5.86-5.81-5.86 9.38-6.64-1.73-8.38c0 0 6.27-6.54-2.85-8.18 0 .03 3.21-9.99-10-9.54z" fill="#ffb08d"/><path d="m347.84 303.23a.35.35 0 0 1 -.14 0c-3.69-1.47-14.75 0-14.86 0a.37.37 0 0 1 -.1-.74c.46-.06 11.36-1.48 15.24.05a.38.38 0 0 1 -.14.73z" fill="#383333"/><path d="m337 311.73a.38.38 0 0 1 -.07-.75c.4-.07 9.64-1.67 13.88-.31a.39.39 0 0 1 .24.48.39.39 0 0 1 -.47.24c-4.06-1.31-13.42.32-13.51.33z" fill="#383333"/><path d="m352.42 319.79a52.16 52.16 0 0 0 -8.72 0 .37.37 0 0 1 -.41-.34.39.39 0 0 1 .34-.41 53.25 53.25 0 0 1 8.87 0 .38.38 0 0 1 .34.41.4.4 0 0 1 -.42.34z" fill="#383333"/><path d="m122.57 146.11s7.83 4.72 13.79-6.64 7.06-42.56 24.42-48.23 67.62-10.57 79.22 5.67 10 48.57 31.29 51.22c0 0-.44-9.32-2.22-21.32-1.19-8-4.4-27-10.2-37.37-16.87-30.1-85.7-38.24-114.49-9.54-8.25 8.23-13.14 19.4-14.69 22.94a90.4 90.4 0 0 0 -7.12 43.27z" fill="#383333"/><circle cx="218.1" cy="55.34" fill="#383333" r="23.09"/><g fill="#fff"><path d="m115.49 267a.49.49 0 0 1 -.49-.42c-.46-2.75 3.22-16.3 14.21-30.47 10.81-14 5.89-40 5.84-40.23a.49.49 0 0 1 .39-.58.5.5 0 0 1 .59.39c.05.27 5.06 26.72-6 41-11.53 14.87-14.34 27.75-14 29.7a.49.49 0 0 1 -.41.57z"/><path d="m149.61 237a.5.5 0 0 1 -.39-.18.51.51 0 0 1 .08-.71c8.48-6.81 5.34-21.2 5.3-21.35a.5.5 0 1 1 1-.22c.14.61 3.32 15.14-5.66 22.35a.45.45 0 0 1 -.33.11z"/><path d="m255.29 222.37a.49.49 0 0 1 -.4-.21c-7.89-10.94-4.74-26.28-4.71-26.43a.49.49 0 0 1 .59-.39.5.5 0 0 1 .39.59c0 .15-3.09 15.07 4.54 25.65a.5.5 0 0 1 -.11.69.47.47 0 0 1 -.3.1z"/><path d="m266.58 136.13h-.1c-10.48-2.27-18.92-31.48-19.27-32.72a.49.49 0 0 1 .34-.62.51.51 0 0 1 .62.35c.08.29 8.62 29.87 18.52 32a.5.5 0 0 1 -.11 1z"/><path d="m202.82 58.16a.49.49 0 0 1 -.5-.47c0-.17-.8-17.11 18-18.25a.51.51 0 0 1 .53.47.5.5 0 0 1 -.47.53c-7.47.45-12.61 3.48-15.27 9a18.64 18.64 0 0 0 -1.78 8.2.49.49 0 0 1 -.46.52z"/><path d="m232.87 61.82a.47.47 0 0 1 -.25-.07.5.5 0 0 1 -.18-.68c1.67-2.8 2.16-5.47 1.47-8-1.18-4.21-5.4-6.52-5.45-6.54a.5.5 0 1 1 .48-.88c.18.1 4.64 2.52 5.93 7.15.77 2.76.24 5.7-1.57 8.74a.51.51 0 0 1 -.43.28z"/><path d="m129.16 122.8h-.09a.49.49 0 0 1 -.4-.58c3.14-16.72 14.94-32.83 15.06-33a.48.48 0 0 1 .69-.1.5.5 0 0 1 .11.7c-.12.16-11.78 16.08-14.88 32.57a.51.51 0 0 1 -.49.41z"/><path d="m262.61 121.68a.5.5 0 0 1 -.5-.5c0-18.71-19.69-38.22-19.89-38.42a.5.5 0 0 1 0-.71.49.49 0 0 1 .7 0c.2.19 20.14 20 20.19 39.13a.5.5 0 0 1 -.5.5z"/></g><path d="m225.76 85.19c-5.16 26-14.95 35.48-23 39.26-16.28 7.65-30.73-5.37-46 5.56-8.15 5.85-12.06 15.36-23.23 16.69a22.44 22.44 0 0 1 -8.51-.66c.17-3.21 2.58-37.33 33.06-56.52 31.92-20.05 65.25-5.45 67.68-4.33z" fill="#383333"/><path d="m124 140a.5.5 0 0 1 -.49-.48.49.49 0 0 1 .49-.52c12.25-.59 20.81-33.63 20.89-34a.5.5 0 0 1 .61-.36.49.49 0 0 1 .36.6c-.36 1.4-8.83 34.1-21.81 34.72z" fill="#fff"/><path d="m188.63 116.44a.5.5 0 0 1 -.06-1c17.88-2.23 26.87-28.67 27-28.94a.5.5 0 0 1 .63-.31.5.5 0 0 1 .32.63 69.51 69.51 0 0 1 -6.84 13.89c-6 9.33-13.27 14.76-20.95 15.72z" fill="#fff"/><path d="m162.35 120a.5.5 0 0 1 -.48-.39.49.49 0 0 1 .37-.6c20.6-4.86 23-29.24 23-29.48a.5.5 0 0 1 .54-.46.49.49 0 0 1 .45.54c0 .26-2.48 25.35-23.78 30.37z" fill="#fff"/><path d="m365.36 171.54a1.5 1.5 0 0 1 -.43-2.94l39.62-11.73-46-45.81a1.5 1.5 0 0 1 2.11-2.13l47.83 47.6a1.51 1.51 0 0 1 -.63 2.5l-42.05 12.45a1.52 1.52 0 0 1 -.45.06z" fill="#ff832f"/><path d="m406.12 229.76a1.5 1.5 0 0 1 -1.47-1.52l1.28-70.68a1.46 1.46 0 0 1 1.53-1.47 1.51 1.51 0 0 1 1.47 1.53l-1.28 70.67a1.49 1.49 0 0 1 -1.53 1.47z" fill="#ff832f"/><circle cx="412.95" cy="155.17" fill="#ffb833" r="15.67"/><circle cx="357.84" cy="105.45" fill="#ffb833" r="11.36"/><circle cx="360.98" cy="173.09" fill="#ffb833" r="11.36"/><circle cx="402.34" cy="223.25" fill="#ffb833" r="11.36"/></g></svg>