<svg height="512" viewBox="0 0 512 512" width="512" xmlns="http://www.w3.org/2000/svg" xmlns:xlink="http://www.w3.org/1999/xlink"><clipPath id="a"><path d="m210.37 190.15h45.76v95.25h-45.76z" transform="matrix(1 .023 -.023 1 5.49 -5.26)"/></clipPath><path d="m252 251.59s36.93.09 59.13 23.3 33.55 185.68 33.55 185.68h-52c-33.74-165.1-24.84-119.06-40.68-208.98z" fill="#917eec"/><circle cx="273.02" cy="193.59" fill="#2d1929" r="32.17"/><path d="m172.25 153c-4.93 24.1.79 51.35 24.78 56.75a45.73 45.73 0 0 1 -10.38-46.33z" fill="#2d1929"/><g clip-path="url(#a)"><path d="m210.37 190.15h45.76v95.25h-45.76z" fill="#e39c76" transform="matrix(1 .023 -.023 1 5.49 -5.26)"/><path d="m202.37 227.47c18.11 12.94 42.3 14.29 61.9 1.41l.78-34-62.05-1.4z" fill="#d48f6e"/></g><path d="m291.19 142.19a36.81 36.81 0 0 1 -1.6 12.61c-.55 1.77-3.86 13.44-7.87 25.44-3.73 11.16-16.77 47.9-47.09 49-25 .67-42.68-28.58-49.27-52.23-1.05-7.48-6.2-29.4-6.3-38.78a38.23 38.23 0 0 1 .41-5.7s1.53-33.53 21.83-51.77a43.76 43.76 0 0 1 15.41-9c1.62-.28 18.46-8.53 41.15.79.31.06.61.1.92.17 34.52 13.23 34.42 62.38 34.42 62.39-.67 2.21-1.34 4.61-2.01 7.08z" fill="#e39c76"/><g fill="#2d1929"><path d="m233.14 179.6c-4.4-1.22-6.94-3-7.57-5.39-1.4-5.28 7.49-8.05 6.56-24.37a.49.49 0 0 1 .47-.53.51.51 0 0 1 .53.47c.94 16.52-7.81 19.61-6.59 24.17.53 2 2.84 3.57 6.87 4.69a.5.5 0 0 1 -.27.96z"/><path d="m215.81 152.89c-.08 4-2.24 7.16-4.81 7.1s-4.59-3.32-4.5-7.3 2.24-7.15 4.81-7.1 4.59 3.33 4.5 7.3z"/><path d="m220.73 138.13c-.95 0-8.65-5-20.84-3.73a1 1 0 0 1 -1.09-.89 1 1 0 0 1 .89-1.1 39.77 39.77 0 0 1 21.48 3.82 1 1 0 0 1 -.44 1.9z"/><path d="m261.3 153.94c-.1 4-2.26 7.15-4.83 7.09s-4.58-3.33-4.49-7.31 2.26-7.15 4.83-7.09 4.58 3.37 4.49 7.31z"/><path d="m245.49 136.92a1 1 0 0 1 -.71-1.71 32.13 32.13 0 0 1 19.7-9.41 1 1 0 1 1 .19 2 30 30 0 0 0 -18.47 8.84 1 1 0 0 1 -.71.28z"/><path d="m248.66 77.76a49.41 49.41 0 0 0 -11.78 7.81c-9.27 8.32-10.12 15.68-16.27 27.13-2.78 5.2-14.35 24.77-35.6 34a61.44 61.44 0 0 1 -13 4 115.91 115.91 0 0 1 -.8-42.16c2.75-16.4 5.7-34 19.94-44.46 21.19-15.55 51-3.25 53.79-2.05 0 0 31.45-15.69 49.41 20.05s4.53 70.14 4.53 70.14c-12.76-2.52-19.3-7.82-22.91-12.27-9.1-11.21-4.72-23.21-12.93-41.43a71.3 71.3 0 0 0 -14.38-20.76z"/></g><path d="m190.77 171.64c-7.73 2.92-16.89-2.33-20.44-11.73s-.15-19.39 7.58-22.32 16.89 2.34 20.44 11.73.16 19.39-7.58 22.32z" fill="#e39c76"/><path d="m185.12 165.75a.47.47 0 0 1 -.28-.09c-.15-.1-3.5-2.45-3.58-4.81-.08-2.07 2-3.18 2.92-3.55-.81-5.28-4.36-12.94-9.49-11.42a.5.5 0 0 1 -.62-.33.51.51 0 0 1 .33-.63c5.94-1.77 10 6.49 10.82 12.64a.5.5 0 0 1 -.34.54s-2.69.89-2.62 2.71c.05 1.55 2.29 3.44 3.15 4a.5.5 0 0 1 -.29.94z" fill="#2d1929"/><path d="m297.09 162.8c-4 9.23-13.35 14.06-20.95 10.79s-10.53-13.41-6.56-22.64 13.36-14 21-10.78 10.49 13.4 6.51 22.63z" fill="#e39c76"/><path d="m283.56 167.19a.5.5 0 0 1 -.32-.89c.81-.65 2.91-2.69 2.86-4.23-.06-1.83-2.78-2.52-2.81-2.53a.52.52 0 0 1 -.38-.52c.37-6.18 3.86-14.7 9.91-13.35a.5.5 0 1 1 -.22 1c-5.21-1.16-8.23 6.73-8.66 12.05.93.32 3.09 1.27 3.16 3.34.08 2.37-3.1 4.95-3.23 5.05a.45.45 0 0 1 -.31.08z" fill="#2d1929"/><path d="m247.66 184.08-31.22 4.53a16.34 16.34 0 0 0 16 11.62c8.04-.35 14.96-7.34 15.22-16.15z" fill="#e9faff"/><path d="m244.23 162.43c-9-4.79-9.59-13.67-1.11-19.5 8.14-5.6 21.66-6.35 30.36-1.74 9 4.79 9.59 13.67 1.11 19.5-8.12 5.58-21.59 6.37-30.36 1.74zm15.9-22.26c-5.46 0-11.42 1.34-15.88 4.41-7.19 4.95-6.8 12 .92 16.08 8.06 4.28 20.77 3.55 28.29-1.62 11.41-7.84 2.54-18.87-13.33-18.87z" fill="#fff"/><path d="m208.25 166.39c-.42 0-.85 0-1.27 0-12-.43-21.54-6.88-21.27-14.38.14-3.72 2.59-7.11 6.92-9.52a29.71 29.71 0 0 1 15.37-3.3c12 .43 21.53 6.88 21.26 14.38-.26 7.22-9.59 12.82-21.01 12.82zm-14.65-22.17c-12.46 7-3.85 19.53 13.45 20.15 10.9.4 19.94-4.49 20.17-10.88.38-10.3-20.97-16.34-33.62-9.27z" fill="#fff"/><path d="m238.3 155.29-10.22-.08a1 1 0 0 1 -1-1 1 1 0 0 1 1-1l10.22.08a1 1 0 0 1 1 1 1 1 0 0 1 -1 1z" fill="#fff"/><path d="m323.22 427.27h139.92v33.3h-139.92z" fill="#2d1929"/><path d="m323.22 430.55h37.88a5 5 0 0 1 5 5v17.75a4.75 4.75 0 0 1 -4.75 4.75h-38.13a0 0 0 0 1 0 0v-27.5a0 0 0 0 1 0 0z" fill="#e9faff"/><path d="m340.71 360.67h139.92v33.3h-139.92z" fill="#efbd42"/><path d="m340.71 363.95h37.89a5 5 0 0 1 5 5v17.75a4.75 4.75 0 0 1 -4.75 4.75h-38.14a0 0 0 0 1 0 0v-27.5a0 0 0 0 1 0 0z" fill="#e9faff"/><path d="m323.22 393.97h125.63v33.3h-125.63z" fill="#e73f46" transform="matrix(-1 0 0 -1 772.06 821.24)"/><path d="m418.34 397.25h25.75a4.75 4.75 0 0 1 4.75 4.75v17.75a5 5 0 0 1 -5 5h-25.5a0 0 0 0 1 0 0v-27.5a0 0 0 0 1 0 0z" fill="#c6c6c6" transform="matrix(-1 0 0 -1 867.19 821.99)"/><path d="m128.49 80q-4.4 16-8.8 32l3.78-33.45z" fill="#86ebf9"/><path d="m87.19 115.11-18.37-33.71-5.05 3.37z" fill="#86ebf9"/><path d="m67.18 143.55-33.08-18.16-3.46 7.62z" fill="#86ebf9"/><path d="m237.78 250.35c-11.22-.81-44.68-3.23-64.58 16.81-14.29 14.4-15.34 34.1-16.14 54.49-1.51 38.49-2.54 85.21-2 138.92h147.33c-18.16-120.21 10.81-169.76-17.52-196.1-12.51-11.63-29.55-12.86-47.09-14.12z" fill="#917eec"/><path d="m82.84 182.66c-3.68 5.93-35.82 58-45.19 92.74-4.66 17.29-4.5 32.49 9.59 43.9 13.52 10.95 65.65 12.46 134.71 4l38.78-73.52a238.83 238.83 0 0 0 -47.86 4.91c-19 4-36.27 11.15-79.38 19.51l20.51-78z" fill="#917eec"/><path d="m96.44 148.57s1.93-4.8 3.43-10.09 2.13-11.55 7.88-11.68 7 7.88 6.88 13.16-1.94 13.68-1.94 13.68-13.69 3.85-16.25-5.07z" fill="#d48f6e"/><path d="m87.11 168-11 26.83c13.73 10.53 27.6 14 34.44 8.59a11.57 11.57 0 0 0 3.53-4.89q-13.51-15.23-26.97-30.53z" fill="#d48f6e"/><path d="m117.87 154s-17.82-9.75-25-6.76c-3.86 1.61-3.92 5.6-1.72 9.18a8.64 8.64 0 0 0 -4.04 11.58 8.54 8.54 0 0 0 -2.62 12c-2.81 4.42-1.71 8.45 1.05 10.54 6.43 4.87 27.43 11.95 31.95 7s-.12-8.87-.12-8.87 6.08-3.32 2-8.82c0 0 8-4.57 3.07-10.85-.01 0 13.35-6.53-4.57-15z" fill="#e39c76"/><path d="m122.43 169.5c-.58 0-8.91-5.83-23.14-9.61a.5.5 0 1 1 .25-1 93 93 0 0 1 23.14 9.64.5.5 0 0 1 -.25.97z" fill="#2d1929"/><path d="m119.15 180.3a154 154 0 0 0 -21.38-7.82.5.5 0 0 1 .27-1 154.43 154.43 0 0 1 21.52 7.87.5.5 0 0 1 -.41.95z" fill="#2d1929"/><path d="m117.37 189.17a72.21 72.21 0 0 1 -8.6-1.32 73.66 73.66 0 0 1 -14.27-4.64.5.5 0 1 1 .4-.92 72.27 72.27 0 0 0 22.52 5.88.5.5 0 0 1 -.05 1z" fill="#2d1929"/><path d="m199 250.84c1.77 12.34 4.51 25.6 7.82 39.73 5.15 22 12.8 48.33 22.78 65.51l43.4-101.59a184.69 184.69 0 0 0 -74-3.65z" fill="#e9faff"/><path d="m210 249.36c2.06 15.3 11.15 26 20.43 26.55 7.13.42 13.31-5.2 15.64-7.32a32.67 32.67 0 0 0 9.77-17.59 39.14 39.14 0 0 0 -13.84-7.89c-3.73-1.18-12-3.69-21.38-.37a29.7 29.7 0 0 0 -10.62 6.62z" fill="#e39c76"/><path d="m210.36 237.77s-4.2-.33-6.47 2.57a31.79 31.79 0 0 0 -4.89 10.5c-.4 2.24 13.34 46.51 17.44 46.76s15.61-21.67 15.61-21.67-17.53-16.16-21.69-38.16z" fill="#e9faff"/><path d="m232.05 275.93s6.91 21.42 13.22 18.14 23.73-26.18 27.73-39.58c0 0-12.81-18.28-16.88-16.72s-4.97 21.37-24.07 38.16z" fill="#e9faff"/><path d="m199 250.84s10.06 45.59 17.44 46.76 15.61-21.67 15.61-21.67-10.92 19-15.29 17.3-17.76-42.39-17.76-42.39z" fill="#c6c6c6"/><path d="m273 254.49c-16.55 31.87-24.84 37.73-29.35 36.55-5.54-1.44-11.62-15.11-11.62-15.11s5.44 21.08 13.3 21.72 24.43-31.95 27.67-43.16z" fill="#c6c6c6"/><path d="m187.21 252.21s-3.15 60 0 68.1 18.95 0 18.95 0-12.45 6.69-10.16 15.69 32.65 30.44 32.65 30.44c-9.4-11.85-16.41-20.14-22-26.07a13.42 13.42 0 0 1 -3.87-6.89c-1.18-6.63 4.1-12.74 6.81-15.48a38.75 38.75 0 0 1 -10.13 1.22c-4.76-.05-6-.75-6.43-1-3.33-2.18-3.49-7.42-3.53-9.84-.16-8.68-.14-29.18.4-56.46z" fill="#6d5fde"/><path d="m282.71 257.34s-7.93 55.74-12.64 61.45-14.23 1.52-14.23 1.52 9.52 5.21 8.18 11.77-30.77 31.92-30.77 31.92 30.26-20.94 34.47-27.67-3.37-11.77-3.37-11.77 7.4.46 11.06-6.09 10.53-59.87 10.53-59.87z" fill="#6d5fde"/><path d="m155 460.57h113c-13.18-2.63-26.21-6.17-32.08-10.6-14-10.59 4.46-35.82 0-39s-56.08 24.84-63.65 13.75-5.55-138.41-8.74-135-6.53 35.7-6.64 36.28c-1.42 37.64-2.35 82.85-1.89 134.57z" fill="#6d5fde"/><path d="m305.19 309.12q-4.35 28.72-8.71 57.44 4.35 47 8.71 94h5.29q-4.56-47.1-9.13-94.18z" fill="#6d5fde"/><path d="m93.49 274.23a137.91 137.91 0 0 1 -38.68 23c19.72-1.06 37-10.37 49.51-25.24z" fill="#6d5fde"/><circle cx="230.55" cy="369.63" fill="#2d1929" r="5.47"/><circle cx="230.55" cy="403.69" fill="#2d1929" r="5.47"/></svg>