<svg height="512" viewBox="0 0 512 512" width="512" xmlns="http://www.w3.org/2000/svg"><g id="Stickers"><path d="m506 290.65c.53-39-31.18-57.26-32.53-58l-1.22-.68-39.25-13.97-.4-.72-3.49-12.71a27.08 27.08 0 0 0 3.38-23.92c.55-3.37 1-6.91 1.32-10.59 2.2-24.68-11.85-44.49-34.28-51a120.54 120.54 0 0 0 2-12.85 236.6 236.6 0 0 0 1-36.3c-.22-4.4-.62-12.61-4.93-20.23-11.21-19.78-36.29-19.92-59-20.63-23-.7-51.89-2.41-95.39 5.5-7 1.27-15 3.08-22.16 8.62-14.68 11.4-15.49 30.1-15.94 40.3l-.82 18.75c-13.61-4.45-56.18-10.22-97.08-8.22-33.53 1.64-70-1.49-72.06 41.15a235 235 0 0 0 1 36.3c1.21 11.43 4 26.85 13.62 38.87a35 35 0 0 0 -5.2 10.81c-1.17 4-4.57 15.75-3.53 67.22a49.39 49.39 0 0 0 -29.54 36.53c-4 20.75 9.41 59.32 14.86 73.68l-1.74 13.7-18.62.2v50h13v20.46l306 .88v-21.39h10.73a41.58 41.58 0 0 0 7.69 8.19c4.15 1.48 9 6.31 46.42 6.31 26.73 0 57.09-2.21 83.6-4.69l14.07-22.36-6.09-62.57c5.64-15.36 24.19-68.2 24.58-96.64z" fill="#fff"/><path d="m329.74 45.26a369.06 369.06 0 0 0 -83.49 5.53c-16.16 2.94-23.38 7.88-24.48 33.17-1.1 25-3.9 45.06 8 56.27 8.7 8.2 22.07 8.16 34 7.62 14.55-.66 29.11-1.32 44-1.95l10 12.84c2.13 2.75 5.23 5.82 8.53 4.73 2.94-1 3.89-4.65 3.85-7.74s-.55-6.44 1.31-9.94c13.29 1.11 28 1.84 38.56-6.25 10.44-8 13.71-22.11 15.1-35.16a221 221 0 0 0 1-33.74c-.66-13.36-4.4-21.76-26.68-23.94-10.6-1.03-21.21-1.04-29.7-1.44z" fill="#00abfe"/><path d="m216.88 169.4c-1-23.51 0-39.83-10.42-47.89-4.24-3.28-9.68-4.45-15-5.41a369.69 369.69 0 0 0 -83.5-5.54c-8.44.44-19.04.44-29.56 1.44-22.55 2.23-26.05 11-26.68 24a218.53 218.53 0 0 0 1 33.74c1.38 13.05 4.66 27.2 15.1 35.16 10.6 8.08 25.27 7.35 38.56 6.26l23.66.1c14.73.63 28.45 1.24 43.66 1.92-2.46 11.19-4 16-2.45 17.75 1.06 1.17 3 .46 4.28-.43 6-4.16 9.76-10.66 12.91-17.37 2.88-.51 12.24-.62 19.6-7.53 9.28-8.84 9.38-23.4 8.84-36.2z" fill="#ff605b"/><path d="m245.83 78.45c-3.1 1-5.07 2.83-3.53 4.36 2 2 7.92 2.26 12.82 2.29 16.18.08 99.33 0 111.14-4.21 2.54-.91 3.89-2.6 2.12-3.81-1.51-1-4.57-1.32-7.32-1.5-32.7-2.14-104.69-.5-115.23 2.87z" fill="#fff"/><path d="m256.09 96.53c-4.2.18-16.92.88-17.2 5.12-.1 1.46 1.79 2.76 4 3.53 9.85 3.46 50.77.77 61.91-.27 15.57-1.44 14.72-6.51 8.31-8.07s-50.46-.57-57.02-.31z" fill="#fff"/><path d="m108.49 143a4.39 4.39 0 0 1 -2.68-6.41c3-5.14 9.51-12.1 22.64-10.31 20.31 2.76 20.11 21.88 14 30.36s-15.77 16.75-16 22.47v2c-.06 4.71-5.17 5.33-4.8 5.13a5.19 5.19 0 0 1 -5.54-5.84c.65-4.87 3.2-12 11.4-19.14 5.64-4.91 10.12-10.91 8.43-18.08-2.61-11.14-15.07-11-19.1-7.19a12.78 12.78 0 0 0 -3 4.44 4.43 4.43 0 0 1 -5.35 2.57z" fill="#fff"/><circle cx="122.63" cy="194.73" fill="#fff" r="4.78"/><path d="m172.89 383.48 16.11 27.52-3.4 1-16.2-26.43c-1.15-1.88 1.2-3.17 1-3a2 2 0 0 1 2.49.91z" fill="#ff605b"/><path d="m89.42 215.87s-23.35-9.16-28.89 9.89-1.85 92.92-1.85 92.92l39.95-7.3z" fill="#ffb020"/><path d="m102.63 269.19-20.41 29s4.44 28.68 20.41 27.2 20-25.72 20-25.72l1.31-14.49z" fill="#ffc5b6"/><path d="m143 238s.68-29.61-24.83-34.37-46.45 14.5-44.78 34.64 11.4 40.17 21.52 40.73 33.44-29.76 33.44-29.76z" fill="#ffc364"/><path d="m143 238a150.28 150.28 0 0 1 -3 31.69c-1.15 5.61-2.9 11.56-7.42 15.07-8.13 6.3-30 4.94-35.71-9.65a10.82 10.82 0 0 1 -8.71-5.61c-3.91-7.54 4-20.12 11-4.42a125.28 125.28 0 0 0 2.68-12.87 43 43 0 0 0 15.39-7.32l-5.28 6.23c1.3.66 2.87 0 4.17-.66a82.1 82.1 0 0 0 23.23-18c-.03 2.1 1.48 4.09 3.65 5.54z" fill="#ffc5b6"/><path d="m114.19 272.15a1 1 0 0 1 1.13-1.65 17.13 17.13 0 0 0 14.57 2.18 1 1 0 0 1 .6 1.91c-1.78.56-11.62.78-16.3-2.44z" fill="#ef9b84"/><path d="m98.76 280.4a1 1 0 0 1 1.74-1c.24.43 6.31 10.52 25 7.33a1 1 0 0 1 .34 2c-14.58 2.47-23.98-2.89-27.08-8.33z" fill="#ef9b84"/><path d="m104.67 250.32a53.14 53.14 0 0 0 11.91-6.24 1 1 0 0 1 1.35 1.46l-3.75 4.46c9.9-1.9 24.19-18 24.35-18.16a1 1 0 0 1 1.5 1.32c-.71.8-17.46 19.63-28.21 19a1 1 0 0 1 -.86-.6c-.39-.9.61-1.41 1.34-2.44a44.17 44.17 0 0 1 -7 3.14 1 1 0 0 1 -.63-1.94z" fill="#ffb020"/><path d="m87.68 290.43 12.58 18.38 5 13.41 10-11.83 7.6-13.08 3.84 4.8s19.28 6.51 28 16.36c5.57 6.31 11.06 79.25 14.61 85 2.4 3.87 21.29 32.13 21.29 32.13l-151.84-2.79 8.67-68.21 4-62.29 28.57-6.51z" fill="#a369f7"/><path d="m145.5 343.41 4.14 25.44-11.53 45.53h12.42l2.77-47.62z" fill="#8a59d8"/><path d="m126.68 302.11s-7.34 37.31-18.58 52.24c-12.1-21.35-20.83-41.71-24.91-60.8l-3.19 2.25c.71 15.54 9.91 36.41 27.25 62.4h3.85c9.23-15.42 15.48-33.76 18.95-54.85z" fill="#fff"/><path d="m92.08 355.25 32-.72.22 42.11-29.59.74z" fill="#ff605b"/><path d="m100.06 366.2 16.97-1.04.66 7.75-17.83.4z" fill="#bd3234"/><path d="m100.26 308.81-11.82 13.41-8.48-26.42 7.71-5.37z" fill="#8a59d8"/><path d="m115.25 310.39 7.04 12.76 4.39-21.04-3.84-4.8z" fill="#8a59d8"/><path d="m157.92 403.44 24.55-1 16.36 10.65 5.32 13.6c-6.08 0-39.76.9-42.38-4.34z" fill="#ffc5b6"/><path d="m51.46 302.31s-19.46 4.43-23.64 25.69 20.4 88.42 31.93 99.36 102-5 102-5 2.3-13.53-3.85-18.92l-77.06-5.32-18.43-54.71s3.23-32.82-10.95-41.1z" fill="#a369f7"/><path d="m154.07 403.68-73.24-5.07a.48.48 0 0 1 -.44-.33c-17.18-51.68-17.27-49.7-16.34-50s-.34-1.83 17.18 49.38c76.83 5.54 73.44 4.59 73.37 5.57a.52.52 0 0 1 -.53.45z" fill="#8a59d8"/><path d="m35.6 466.32v-25.23h272.84v26.02z" fill="#ed6c4d"/><path d="m22.59 428.87v16.95h297.28v-20.2z" fill="#ffad92"/><path d="m414.49 229 50.86 18.14s24.45 13.69 24 43.32-24.84 94.67-24.84 94.67l5.92 60.72-6.7 10.65s-92.1 8.67-111.3 0a30.68 30.68 0 0 1 -9-25.25c1.58-16.15 3.55-61.49 3.55-61.49s-14.19 5.52-27.2-1.78-16.37-9.75-16.37-9.75l1.5-38.93 11.71 6.16 18.86-65a28 28 0 0 1 16.79-18.34l27.34-10.6z" fill="#ff605b"/><path d="m301.93 320.94-36.37-27.39-19.56-11.89a11.44 11.44 0 0 0 -12.33.29l-9.49 6.4s-17.45 20.11-15.08 21.32 8-3.35 8-3.35l11.83-11.11s-3.55 14.79 7.39 16.27 14.2.29 14.2.29l53.67 44.36z" fill="#ffad92"/><path d="m410.44 199.1 9.18 33.35s-12.42 16-22.77 14.56-17.15-15.52-17.15-15.52v-12.27z" fill="#ffad92"/><path d="m352.48 168.56s-4.76-25.77 18.6-33.17 48.68 5.83 46.24 33.17-10.46 34.36-10.46 34.36z" fill="#1d1d3d"/><path d="m352.48 168.56a132.53 132.53 0 0 0 12.6 41.22c2.77 5.59 6.4 11.4 12.28 13.51 11.45 4.11 32.33-9.26 33.08-24.19a10.63 10.63 0 0 0 4.72-16.37 5.56 5.56 0 0 0 -3.55-2.36c-3.09-.38-5.3 3.1-5.64 6.19s.28 5.93.53 8.69c-1.15 1.52-3.73 1-5-.49-2.3-2.72-1.33-7.11-6.58-12.43.1-7.63 4.47-18.31-1.49-25.19a10.93 10.93 0 0 0 -13.56-2.09c-5.45 3.36-6.52 10.35-17.17 14.3-3.37 1.27-7.48 1.7-10.22-.79z" fill="#ffad92"/><path d="m374.33 213.14a1 1 0 0 1 -.16-2 22.69 22.69 0 0 0 16.65-12.47 1 1 0 0 1 1.8.86 24.7 24.7 0 0 1 -18.13 13.59z" fill="#ed6c4d"/><path d="m382.39 224.74a30.09 30.09 0 0 1 -5.21-.47 1 1 0 0 1 .35-2c21.28 3.74 30.78-18 30.87-18.18a1 1 0 1 1 1.84.79c-.09.24-8.69 19.86-27.85 19.86z" fill="#ed6c4d"/><g fill="#bd3234"><path d="m355.35 274.43-8.28 95.3-6.25 1.54z"/><path d="m452.74 293.55-27.78 67.13-21.6-2.48v-3.26l19.81 3.26z"/><path d="m464.56 385.1s-16 24.84-26.9 24-30.76-8-30.76-8v3.85s24 7.68 31.64 7.09 16-9.66 20.41-9.56 7.3 0 7.3 0z"/><path d="m309.87 320c-2.43 12.2-2.36 27.38-1.39 43.64l-9-3c-1.22-15.38-2-30.51.67-43.47z"/><path d="m417.48 224.12-14.12 16.81 9.46 15.84 8.73-25.28z"/><path d="m379.7 228.97 13.9 11.48-6.95 14.55-10.94-21.96z"/></g><path d="m403.36 240.93-9.76-.48-4.78 9.99 2.9 6.33-12.02 109.99 12.02 12.13 11.64-10.94v-111.18l5-7.46z" fill="#ffb020"/><path d="m397.34 357.7-47.83-16 .65-7.46s-9.59.19-12.55 7.09a91.59 91.59 0 0 0 -3.49 10.13 9.73 9.73 0 0 0 3.61 10.54 32.23 32.23 0 0 0 6.78 4s36.08 23.07 56.77 28.39z" fill="#ffad92"/><path d="m405.72 349.92s7.39 39.72 4.14 57.85l-11.86-2.85-4.43-55z" fill="#bd3234"/><path d="m234.41 304.27a3.5 3.5 0 0 1 .64-5.86c8.59-4.29 9.86-8.4 11.29-6.83a1 1 0 0 1 -.07 1.41c-8.09 7.38-11 6.45-11.16 8.43-.16 1.54 2.31 2.49 3.84 2.26 7.37-1.05 9.63-3.48 10.25-1.7a1 1 0 0 1 -.61 1.27 56.62 56.62 0 0 1 -9.36 2.41 6.27 6.27 0 0 1 -4.82-1.39z" fill="#ed6c4d"/><path d="m314.17 226.35c-2.66 15.33.08 31 2.39 46.21a368.59 368.59 0 0 1 -56.83 2.65c-.34 0-.67 0-1 0-11.59-6.14-13.44-12.75-19.16-15.77l-.1-.05c2.77-31.31-1.7-47.57-2.58-66.54-.28-6.1-.18-12.24-.29-19.41q41.71.39 83.41 2.11c-4.3 21.58-3.7 16.32-2.45 25.61 1.12 8.42-1.94 16.84-3.39 25.19z" fill="#eae5db"/><path d="m248.1 198.17a54.81 54.81 0 0 0 5.6 7.76c.5.57 1.14 1.19 1.89 1.08 2.16-.32 10.85-11.68 10.91-14.53 0-1.18-1.58-1.79-2.66-1.3-1.87.85-1.17 2.09-8.38 10.47-2-1.13-2.54-4.26-4.89-4.87-1.13-.3-2.91.65-2.47 1.39z" fill="#1d1d3d"/><path d="m275.31 198.65c5.49-1 29.72-5.88 29.91-.39 0 1.17-1.33 1.82-2.47 2.12-4.54 1.19-26.34 5.48-28.9 1.47a2.27 2.27 0 0 1 1.46-3.2z" fill="#fff"/><path d="m248.1 229.87a54.72 54.72 0 0 0 5.6 7.75c1.27 1.46 2 1.31 3 .43 6.28-5.59 9.77-12.86 9.79-13.88s-1.58-1.79-2.66-1.3c-1.87.85-1.17 2.1-8.38 10.48-2-1.13-2.54-4.27-4.89-4.88-1.12-.3-2.9.65-2.46 1.4z" fill="#1d1d3d"/><path d="m275.31 230.34a173.66 173.66 0 0 1 21.26-3c9.68-.55 10.46 3.57 6.18 4.7-5.45 1.47-19.75 3.86-25.95 2.96-4.8-.73-3.25-4.33-1.49-4.66z" fill="#fff"/><path d="m259.73 275.21c-.34 0-.67 0-1 0-11.59-6.14-13.44-12.75-19.16-15.77 9.38.6 14.55-1.76 19.06-2.37a1.17 1.17 0 0 1 .79.09 1.14 1.14 0 0 1 .39.8 46.7 46.7 0 0 1 -.08 17.25z" fill="#ffad92"/><path d="m274.49 380.82c-1.74 1.72-2.62 2.3-34.51 3.87-3.64.19-10.77.55-12.44-2.71-.94-1.85-1.39-21.16.08-24.64 2.35-5.62 9.15-6.3 14.7-6.46 30-.86 30.59-3.14 33.77 2.87a19.32 19.32 0 0 1 2.16 8.3c.22 5.03-.81 15.82-3.76 18.77z" fill="#c72f55"/><path d="m277.37 356.83c-4.1 3.56-19 15-22.83 15.22s-20.83-8.85-27.42-13c.6-3.48 3.48-5.91 6.8-7a29.2 29.2 0 0 1 8.4-1.11c30-.86 30.59-3.14 33.77 2.87a18.37 18.37 0 0 1 1.28 3.02z" fill="#ff605b"/></g></svg>