<svg width="41" height="40" viewBox="0 0 41 40" fill="none" xmlns="http://www.w3.org/2000/svg">
<g id="Property 1=collapse">
<mask id="mask0_807_4926" style="mask-type:luminance" maskUnits="userSpaceOnUse" x="0" y="0" width="41" height="40">
<g id="e5006aa8fb">
<path id="Vector" d="M23.3191 18.6364H5.07982C4.37343 18.6364 3.86175 18.0072 4.05193 17.3716L9.06004 0.728114C9.18909 0.296717 9.60794 0 10.0879 0H28.3272C29.0336 0 29.5453 0.631313 29.3551 1.26473L24.347 17.9104C24.2179 18.3396 23.7968 18.6364 23.3191 18.6364ZM11.4735 31.1995L14.05 22.6305C14.2425 21.9949 13.7308 21.3657 13.0221 21.3657H3.64666C3.16895 21.3657 2.74783 21.6625 2.61878 22.0918L0.0400138 30.6608C-0.150167 31.2963 0.361511 31.9255 1.0679 31.9255H10.4456C10.9234 31.9255 11.3445 31.6288 11.4735 31.1995ZM16.2167 22.0918L11.2109 38.7353C11.0184 39.3708 11.5301 40 12.2388 40H30.4758C30.9558 40 31.3746 39.7033 31.5059 39.274L36.5118 22.6305C36.7042 21.9949 36.1903 21.3657 35.4839 21.3657H17.2446C16.7669 21.3657 16.3458 21.6625 16.2167 22.0918ZM29.0925 8.80051L26.5137 17.3716C26.3212 18.0072 26.8352 18.6364 27.5416 18.6364H36.9171C37.3948 18.6364 37.8159 18.3396 37.9449 17.9104L40.5237 9.33923C40.7139 8.7037 40.2022 8.0745 39.4958 8.0745H30.1203C29.6404 8.0745 29.2215 8.37121 29.0925 8.80051Z" fill="white"/>
</g>
</mask>
<g mask="url(#mask0_807_4926)">
<path id="Vector_2" d="M-0.150162 0V40H40.7071V0H-0.150162Z" fill="white"/>
</g>
</g>
</svg>
