<svg width="130" height="40" viewBox="0 0 130 40" fill="none" xmlns="http://www.w3.org/2000/svg">
<path d="M62.008 37.2334C62.008 37.1507 61.9746 37.0734 61.908 37.0014C61.8413 36.9294 61.7573 36.8641 61.656 36.8054C61.5573 36.7441 61.4226 36.6694 61.252 36.5814C61.0493 36.4747 60.8866 36.3841 60.764 36.3094C60.6413 36.2321 60.536 36.1414 60.448 36.0374C60.3626 35.9334 60.32 35.8187 60.32 35.6934C60.32 35.5601 60.376 35.4174 60.488 35.2654C60.6 35.1107 60.736 34.9814 60.896 34.8774C61.0586 34.7707 61.208 34.7174 61.344 34.7174C61.5093 34.7174 61.7013 34.7374 61.92 34.7774C62.1386 34.8174 62.2986 34.8601 62.4 34.9054V35.6814H62.248C62.1173 35.4654 61.9733 35.2974 61.816 35.1774C61.6613 35.0574 61.4986 34.9974 61.328 34.9974C61.176 34.9974 61.0546 35.0454 60.964 35.1414C60.876 35.2347 60.832 35.3574 60.832 35.5094C60.832 35.5974 60.8653 35.6801 60.932 35.7574C61.0013 35.8321 61.0853 35.8987 61.184 35.9574C61.2853 36.0161 61.4253 36.0921 61.604 36.1854C61.8013 36.2841 61.9613 36.3721 62.084 36.4494C62.2066 36.5241 62.3093 36.6121 62.392 36.7134C62.4773 36.8121 62.52 36.9241 62.52 37.0494C62.52 37.1827 62.46 37.3267 62.34 37.4814C62.22 37.6334 62.0733 37.7627 61.9 37.8694C61.7293 37.9734 61.5733 38.0254 61.432 38.0254C61.2586 38.0254 61.052 38.0054 60.812 37.9654C60.5746 37.9254 60.404 37.8827 60.3 37.8374V37.0614H60.452C60.588 37.2774 60.7426 37.4454 60.916 37.5654C61.0893 37.6854 61.268 37.7454 61.452 37.7454C61.5613 37.7454 61.6586 37.7214 61.744 37.6734C61.8293 37.6254 61.8946 37.5627 61.94 37.4854C61.9853 37.4054 62.008 37.3214 62.008 37.2334ZM65.1328 35.9414L64.1208 37.9414L63.2888 38.9974L63.1368 38.8774C63.2888 38.7147 63.4034 38.5721 63.4808 38.4494C63.5608 38.3267 63.6168 38.2027 63.6488 38.0774C63.6808 37.9547 63.6968 37.8081 63.6968 37.6374L63.1928 36.4174L62.8208 36.2014V36.0774L63.5048 35.7414L63.6568 36.3454L64.1448 37.5374L64.7088 36.3654L64.1768 35.9774L64.2568 35.8174H65.1328V35.9414ZM66.7892 37.5094C66.7892 37.4347 66.7479 37.3667 66.6652 37.3054C66.5826 37.2414 66.4559 37.1654 66.2852 37.0774C66.1466 37.0054 66.0346 36.9427 65.9492 36.8894C65.8639 36.8361 65.7906 36.7747 65.7292 36.7054C65.6706 36.6334 65.6412 36.5561 65.6412 36.4734C65.6412 36.3774 65.6812 36.2747 65.7612 36.1654C65.8412 36.0561 65.9399 35.9641 66.0572 35.8894C66.1746 35.8147 66.2839 35.7774 66.3852 35.7774C66.5079 35.7774 66.6492 35.7934 66.8092 35.8254C66.9719 35.8547 67.0892 35.8881 67.1612 35.9254V36.5414H67.0092C66.9239 36.3761 66.8252 36.2481 66.7132 36.1574C66.6012 36.0641 66.4866 36.0174 66.3692 36.0174C66.2866 36.0174 66.2199 36.0401 66.1692 36.0854C66.1186 36.1281 66.0932 36.1827 66.0932 36.2494C66.0932 36.3321 66.1359 36.4067 66.2212 36.4734C66.3092 36.5374 66.4412 36.6134 66.6172 36.7014C66.7532 36.7707 66.8626 36.8307 66.9452 36.8814C67.0279 36.9321 67.0972 36.9921 67.1532 37.0614C67.2119 37.1281 67.2412 37.2027 67.2412 37.2854C67.2412 37.3841 67.1986 37.4881 67.1132 37.5974C67.0306 37.7041 66.9279 37.7947 66.8052 37.8694C66.6852 37.9441 66.5746 37.9814 66.4732 37.9814C66.3426 37.9814 66.1866 37.9667 66.0052 37.9374C65.8266 37.9054 65.6986 37.8707 65.6212 37.8334V37.2174H65.7732C65.8666 37.3827 65.9772 37.5121 66.1052 37.6054C66.2332 37.6961 66.3626 37.7414 66.4932 37.7414C66.5812 37.7414 66.6519 37.7187 66.7052 37.6734C66.7612 37.6281 66.7892 37.5734 66.7892 37.5094ZM68.8756 37.9494C68.8143 37.9707 68.7396 37.9814 68.6516 37.9814C68.4303 37.9814 68.2676 37.9241 68.1636 37.8094C68.0623 37.6921 68.0116 37.5121 68.0116 37.2694V36.1014H67.5796V35.9374L68.3396 35.0534H68.4916V35.9374H69.2116V36.1014H68.4916V37.3174C68.4916 37.5334 68.5956 37.6414 68.8036 37.6414C68.8596 37.6414 68.9129 37.6294 68.9636 37.6054C69.0169 37.5814 69.0823 37.5387 69.1596 37.4774L69.2796 37.6294L68.8756 37.9494ZM70.8848 37.9494C70.7781 37.9707 70.6501 37.9814 70.5008 37.9814C70.3248 37.9814 70.1661 37.9361 70.0248 37.8454C69.8861 37.7521 69.7768 37.6267 69.6968 37.4694C69.6194 37.3121 69.5808 37.1387 69.5808 36.9494C69.5808 36.7441 69.6434 36.5521 69.7688 36.3734C69.8941 36.1921 70.0501 36.0481 70.2368 35.9414C70.4261 35.8321 70.6088 35.7774 70.7848 35.7774C71.0381 35.7774 71.2341 35.8774 71.3728 36.0774C71.5141 36.2774 71.5848 36.5414 71.5848 36.8694H70.1048C70.1208 37.0961 70.1821 37.2814 70.2888 37.4254C70.3981 37.5694 70.5461 37.6414 70.7328 37.6414C70.9061 37.6414 71.1528 37.5067 71.4728 37.2374L71.5928 37.3894L70.8848 37.9494ZM70.5528 36.1134C70.2648 36.1134 70.1141 36.3107 70.1008 36.7054H71.0368C71.0128 36.5614 70.9874 36.4521 70.9608 36.3774C70.9368 36.3001 70.8928 36.2374 70.8288 36.1894C70.7674 36.1387 70.6754 36.1134 70.5528 36.1134ZM75.8511 37.9414H75.0911V36.5934C75.0911 36.4467 75.0684 36.3441 75.0231 36.2854C74.9777 36.2267 74.8964 36.1974 74.7791 36.1974C74.6964 36.1974 74.6151 36.2134 74.5351 36.2454C74.4551 36.2747 74.3604 36.3347 74.2511 36.4254V37.6414L74.6111 37.7814L74.5311 37.9414H73.7711V36.5934C73.7711 36.4467 73.7484 36.3441 73.7031 36.2854C73.6577 36.2267 73.5764 36.1974 73.4591 36.1974C73.3764 36.1974 73.2951 36.2134 73.2151 36.2454C73.1351 36.2747 73.0404 36.3347 72.9311 36.4254V37.6414L73.2911 37.7814L73.2111 37.9414H72.0951V37.8174L72.4511 37.5374V36.4054L72.0951 36.1974V36.0734L72.7791 35.7374L72.9071 36.2494L73.4391 35.8054C73.4951 35.7841 73.5684 35.7734 73.6591 35.7734C73.8137 35.7734 73.9417 35.8161 74.0431 35.9014C74.1444 35.9841 74.2084 36.0987 74.2351 36.2454L74.7551 35.8094C74.8111 35.7881 74.8844 35.7774 74.9751 35.7774C75.1564 35.7774 75.3004 35.8334 75.4071 35.9454C75.5137 36.0547 75.5671 36.2041 75.5671 36.3934V37.6414L75.9311 37.7814L75.8511 37.9414ZM77.6113 37.9494C77.5046 37.9707 77.3766 37.9814 77.2273 37.9814C77.0513 37.9814 76.8926 37.9361 76.7513 37.8454C76.6126 37.7521 76.5033 37.6267 76.4233 37.4694C76.346 37.3121 76.3073 37.1387 76.3073 36.9494C76.3073 36.7441 76.37 36.5521 76.4953 36.3734C76.6206 36.1921 76.7766 36.0481 76.9633 35.9414C77.1526 35.8321 77.3353 35.7774 77.5113 35.7774C77.7646 35.7774 77.9606 35.8774 78.0993 36.0774C78.2406 36.2774 78.3113 36.5414 78.3113 36.8694H76.8313C76.8473 37.0961 76.9086 37.2814 77.0153 37.4254C77.1246 37.5694 77.2726 37.6414 77.4593 37.6414C77.6326 37.6414 77.8793 37.5067 78.1993 37.2374L78.3193 37.3894L77.6113 37.9494ZM77.2793 36.1134C76.9913 36.1134 76.8406 36.3107 76.8273 36.7054H77.7633C77.7393 36.5614 77.714 36.4521 77.6873 36.3774C77.6633 36.3001 77.6193 36.2374 77.5553 36.1894C77.494 36.1387 77.402 36.1134 77.2793 36.1134ZM82.3508 37.9414H81.5908V37.6534L81.2188 37.9494C81.1335 37.9707 81.0308 37.9814 80.9108 37.9814C80.7348 37.9814 80.5761 37.9361 80.4348 37.8454C80.2961 37.7521 80.1868 37.6267 80.1068 37.4694C80.0295 37.3121 79.9908 37.1387 79.9908 36.9494C79.9908 36.7441 80.0535 36.5521 80.1788 36.3734C80.3041 36.1921 80.4601 36.0481 80.6468 35.9414C80.8361 35.8321 81.0188 35.7774 81.1948 35.7774C81.3415 35.7774 81.4748 35.8187 81.5948 35.9014V35.0774L81.2388 34.8294V34.7054L81.9228 34.4494H82.0748V37.6414L82.4308 37.7814L82.3508 37.9414ZM81.1148 37.6414C81.1948 37.6414 81.2708 37.6307 81.3428 37.6094C81.4175 37.5854 81.5001 37.5414 81.5908 37.4774V36.5654C81.5748 36.4321 81.5121 36.3241 81.4028 36.2414C81.2961 36.1561 81.1495 36.1134 80.9628 36.1134C80.6615 36.1134 80.5108 36.3281 80.5108 36.7574C80.5108 37.0081 80.5628 37.2187 80.6668 37.3894C80.7708 37.5574 80.9201 37.6414 81.1148 37.6414ZM82.8871 36.2214L82.7351 36.1014C82.8711 35.9387 82.9685 35.7987 83.0271 35.6814C83.0858 35.5614 83.1205 35.4281 83.1311 35.2814L82.8191 35.0974V34.9734L83.5031 34.6374L83.6551 35.2454L82.8871 36.2214ZM85.3516 37.9414H84.2356V37.8174L84.5916 37.5374V36.3694L84.2356 36.1214V35.9974L84.9196 35.7414H85.0716V37.6414L85.4316 37.7814L85.3516 37.9414ZM84.8156 34.5414C84.8956 34.5414 84.9609 34.5707 85.0116 34.6294C85.0649 34.6881 85.0916 34.7614 85.0916 34.8494C85.0916 34.9107 85.0729 34.9694 85.0356 35.0254C84.9983 35.0787 84.9516 35.1214 84.8956 35.1534C84.8396 35.1854 84.7849 35.2014 84.7316 35.2014C84.6516 35.2014 84.5849 35.1721 84.5316 35.1134C84.4809 35.0547 84.4556 34.9814 84.4556 34.8934C84.4556 34.8321 84.4743 34.7747 84.5116 34.7214C84.5489 34.6654 84.5956 34.6214 84.6516 34.5894C84.7076 34.5574 84.7623 34.5414 84.8156 34.5414ZM88.2663 37.9454H87.5063V36.5974C87.5063 36.4507 87.4836 36.3481 87.4383 36.2894C87.3929 36.2307 87.3116 36.2014 87.1943 36.2014C87.1063 36.2014 87.0183 36.2174 86.9303 36.2494C86.8449 36.2814 86.7436 36.3427 86.6263 36.4334V37.6454L86.9863 37.7854L86.9063 37.9454H85.7903V37.8214L86.1463 37.5414V36.4094L85.7903 36.2014V36.0774L86.4743 35.7414L86.6063 36.2614L87.1743 35.8094C87.2303 35.7881 87.3036 35.7774 87.3943 35.7774C87.5756 35.7774 87.7196 35.8334 87.8263 35.9454C87.9329 36.0547 87.9863 36.2041 87.9863 36.3934V37.6414L88.3463 37.7854L88.2663 37.9454ZM90.1053 34.4094C90.1799 34.4094 90.2639 34.4174 90.3573 34.4334C90.4533 34.4467 90.5213 34.4614 90.5613 34.4774V35.0934H90.4093C90.3426 34.9867 90.2613 34.9027 90.1653 34.8414C90.0693 34.7774 89.9719 34.7454 89.8733 34.7454C89.7506 34.7454 89.6573 34.8001 89.5933 34.9094C89.5319 35.0187 89.5013 35.1787 89.5013 35.3894V35.9374H90.2213V36.1014H89.5013V37.6094L90.0613 37.7814L89.9813 37.9414H88.6653V37.8174L89.0213 37.5374V36.1014H88.5453V35.9374H89.0213V35.5814C89.0213 35.3761 89.0773 35.1827 89.1893 35.0014C89.3013 34.8201 89.4413 34.6761 89.6093 34.5694C89.7799 34.4627 89.9453 34.4094 90.1053 34.4094ZM91.648 35.7774C91.824 35.7774 91.9814 35.8241 92.12 35.9174C92.2614 36.0081 92.3707 36.1321 92.448 36.2894C92.528 36.4467 92.568 36.6201 92.568 36.8094C92.568 37.0147 92.5054 37.2081 92.38 37.3894C92.2547 37.5681 92.0974 37.7121 91.908 37.8214C91.7214 37.9281 91.54 37.9814 91.364 37.9814C91.188 37.9814 91.0294 37.9361 90.888 37.8454C90.7494 37.7521 90.64 37.6267 90.56 37.4694C90.4827 37.3121 90.444 37.1387 90.444 36.9494C90.444 36.7441 90.5067 36.5521 90.632 36.3734C90.7574 36.1921 90.9134 36.0481 91.1 35.9414C91.2894 35.8321 91.472 35.7774 91.648 35.7774ZM91.416 36.1134C91.1147 36.1134 90.964 36.3281 90.964 36.7574C90.964 37.0107 91.0187 37.2227 91.128 37.3934C91.2374 37.5614 91.3934 37.6454 91.596 37.6454C91.8974 37.6454 92.048 37.4294 92.048 36.9974C92.048 36.7467 91.9934 36.5374 91.884 36.3694C91.7747 36.1987 91.6187 36.1134 91.416 36.1134ZM94.5116 35.7814C94.5996 35.7814 94.677 35.8054 94.7436 35.8534C94.8103 35.9014 94.8623 35.9681 94.8996 36.0534L94.6356 36.3854H94.4836C94.473 36.3187 94.453 36.2721 94.4236 36.2454C94.397 36.2161 94.3596 36.2014 94.3116 36.2014C94.253 36.2014 94.1903 36.2174 94.1236 36.2494C94.0596 36.2787 93.9863 36.3361 93.9036 36.4214V37.6134L94.4636 37.7854L94.3836 37.9454H93.0676V37.8214L93.4236 37.5414V36.4094L93.0676 36.2014V36.0774L93.7516 35.7414L93.8756 36.2334L94.2916 35.8094C94.3476 35.7881 94.421 35.7774 94.5116 35.7774V35.7814ZM98.9018 37.9414H98.1418V36.5934C98.1418 36.4467 98.1192 36.3441 98.0738 36.2854C98.0285 36.2267 97.9472 36.1974 97.8298 36.1974C97.7472 36.1974 97.6658 36.2134 97.5858 36.2454C97.5058 36.2747 97.4112 36.3347 97.3018 36.4254V37.6414L97.6618 37.7814L97.5818 37.9414H96.8218V36.5934C96.8218 36.4467 96.7992 36.3441 96.7538 36.2854C96.7085 36.2267 96.6272 36.1974 96.5098 36.1974C96.4272 36.1974 96.3458 36.2134 96.2658 36.2454C96.1858 36.2747 96.0912 36.3347 95.9818 36.4254V37.6414L96.3418 37.7814L96.2618 37.9414H95.1458V37.8174L95.5018 37.5374V36.4054L95.1458 36.1974V36.0734L95.8298 35.7374L95.9578 36.2494L96.4898 35.8054C96.5458 35.7841 96.6192 35.7734 96.7098 35.7734C96.8645 35.7734 96.9925 35.8161 97.0938 35.9014C97.1952 35.9841 97.2592 36.0987 97.2858 36.2454L97.8058 35.8094C97.8618 35.7881 97.9352 35.7774 98.0258 35.7774C98.2072 35.7774 98.3512 35.8334 98.4578 35.9454C98.5645 36.0547 98.6178 36.2041 98.6178 36.3934V37.6414L98.9818 37.7814L98.9018 37.9414ZM101.382 37.9414H100.622V37.5934L100.17 37.9494C100.117 37.9707 100.05 37.9814 99.9701 37.9814C99.7408 37.9814 99.5741 37.9241 99.4701 37.8094C99.3688 37.6947 99.3181 37.5574 99.3181 37.3974C99.3181 37.3014 99.3528 37.2067 99.4221 37.1134C99.4914 37.0201 99.5901 36.9321 99.7181 36.8494H100.622V36.5934C100.622 36.4201 100.575 36.2974 100.482 36.2254C100.391 36.1534 100.266 36.1174 100.106 36.1174C99.9408 36.1174 99.7381 36.2174 99.4981 36.4174L99.3781 36.2654L99.9541 35.8094C100.061 35.7881 100.189 35.7774 100.338 35.7774C100.581 35.7774 100.769 35.8374 100.902 35.9574C101.035 36.0747 101.102 36.2467 101.102 36.4734V37.6414L101.462 37.7814L101.382 37.9414ZM100.098 37.6414C100.261 37.6414 100.435 37.5667 100.622 37.4174V37.0134H99.9141C99.8794 37.0561 99.8541 37.0987 99.8381 37.1414C99.8248 37.1841 99.8181 37.2307 99.8181 37.2814C99.8181 37.3801 99.8434 37.4654 99.8941 37.5374C99.9448 37.6067 100.013 37.6414 100.098 37.6414ZM102.922 37.9494C102.861 37.9707 102.786 37.9814 102.698 37.9814C102.477 37.9814 102.314 37.9241 102.21 37.8094C102.109 37.6921 102.058 37.5121 102.058 37.2694V36.1014H101.626V35.9374L102.386 35.0534H102.538V35.9374H103.258V36.1014H102.538V37.3174C102.538 37.5334 102.642 37.6414 102.85 37.6414C102.906 37.6414 102.96 37.6294 103.01 37.6054C103.064 37.5814 103.129 37.5387 103.206 37.4774L103.326 37.6294L102.922 37.9494ZM104.723 37.9414H103.607V37.8174L103.963 37.5374V36.3694L103.607 36.1214V35.9974L104.291 35.7414H104.443V37.6414L104.803 37.7814L104.723 37.9414ZM104.187 34.5414C104.267 34.5414 104.332 34.5707 104.383 34.6294C104.436 34.6881 104.463 34.7614 104.463 34.8494C104.463 34.9107 104.444 34.9694 104.407 35.0254C104.369 35.0787 104.323 35.1214 104.267 35.1534C104.211 35.1854 104.156 35.2014 104.103 35.2014C104.023 35.2014 103.956 35.1721 103.903 35.1134C103.852 35.0547 103.827 34.9814 103.827 34.8934C103.827 34.8321 103.845 34.7747 103.883 34.7214C103.92 34.6654 103.967 34.6214 104.023 34.5894C104.079 34.5574 104.133 34.5414 104.187 34.5414ZM106.425 35.7774C106.601 35.7774 106.759 35.8241 106.897 35.9174C107.039 36.0081 107.148 36.1321 107.225 36.2894C107.305 36.4467 107.345 36.6201 107.345 36.8094C107.345 37.0147 107.283 37.2081 107.157 37.3894C107.032 37.5681 106.875 37.7121 106.685 37.8214C106.499 37.9281 106.317 37.9814 106.141 37.9814C105.965 37.9814 105.807 37.9361 105.665 37.8454C105.527 37.7521 105.417 37.6267 105.337 37.4694C105.26 37.3121 105.221 37.1387 105.221 36.9494C105.221 36.7441 105.284 36.5521 105.409 36.3734C105.535 36.1921 105.691 36.0481 105.877 35.9414C106.067 35.8321 106.249 35.7774 106.425 35.7774ZM106.193 36.1134C105.892 36.1134 105.741 36.3281 105.741 36.7574C105.741 37.0107 105.796 37.2227 105.905 37.3934C106.015 37.5614 106.171 37.6454 106.373 37.6454C106.675 37.6454 106.825 37.4294 106.825 36.9974C106.825 36.7467 106.771 36.5374 106.661 36.3694C106.552 36.1987 106.396 36.1134 106.193 36.1134ZM110.321 37.9454H109.561V36.5974C109.561 36.4507 109.538 36.3481 109.493 36.2894C109.448 36.2307 109.366 36.2014 109.249 36.2014C109.161 36.2014 109.073 36.2174 108.985 36.2494C108.9 36.2814 108.798 36.3427 108.681 36.4334V37.6454L109.041 37.7854L108.961 37.9454H107.845V37.8214L108.201 37.5414V36.4094L107.845 36.2014V36.0774L108.529 35.7414L108.661 36.2614L109.229 35.8094C109.285 35.7881 109.358 35.7774 109.449 35.7774C109.63 35.7774 109.774 35.8334 109.881 35.9454C109.988 36.0547 110.041 36.2041 110.041 36.3934V37.6414L110.401 37.7854L110.321 37.9454ZM113.125 37.5094C113.125 37.4347 113.084 37.3667 113.001 37.3054C112.918 37.2414 112.792 37.1654 112.621 37.0774C112.482 37.0054 112.37 36.9427 112.285 36.8894C112.2 36.8361 112.126 36.7747 112.065 36.7054C112.006 36.6334 111.977 36.5561 111.977 36.4734C111.977 36.3774 112.017 36.2747 112.097 36.1654C112.177 36.0561 112.276 35.9641 112.393 35.8894C112.51 35.8147 112.62 35.7774 112.721 35.7774C112.844 35.7774 112.985 35.7934 113.145 35.8254C113.308 35.8547 113.425 35.8881 113.497 35.9254V36.5414H113.345C113.26 36.3761 113.161 36.2481 113.049 36.1574C112.937 36.0641 112.822 36.0174 112.705 36.0174C112.622 36.0174 112.556 36.0401 112.505 36.0854C112.454 36.1281 112.429 36.1827 112.429 36.2494C112.429 36.3321 112.472 36.4067 112.557 36.4734C112.645 36.5374 112.777 36.6134 112.953 36.7014C113.089 36.7707 113.198 36.8307 113.281 36.8814C113.364 36.9321 113.433 36.9921 113.489 37.0614C113.548 37.1281 113.577 37.2027 113.577 37.2854C113.577 37.3841 113.534 37.4881 113.449 37.5974C113.366 37.7041 113.264 37.7947 113.141 37.8694C113.021 37.9441 112.91 37.9814 112.809 37.9814C112.678 37.9814 112.522 37.9667 112.341 37.9374C112.162 37.9054 112.034 37.8707 111.957 37.8334V37.2174H112.109C112.202 37.3827 112.313 37.5121 112.441 37.6054C112.569 37.6961 112.698 37.7414 112.829 37.7414C112.917 37.7414 112.988 37.7187 113.041 37.6734C113.097 37.6281 113.125 37.5734 113.125 37.5094ZM115.256 35.7774C115.365 35.7774 115.492 35.7934 115.636 35.8254C115.782 35.8547 115.888 35.8881 115.952 35.9254V36.5414H115.8C115.696 36.4081 115.576 36.3041 115.44 36.2294C115.306 36.1521 115.168 36.1134 115.024 36.1134C114.901 36.1134 114.808 36.1681 114.744 36.2774C114.682 36.3867 114.652 36.5467 114.652 36.7574C114.652 37.0081 114.706 37.2187 114.816 37.3894C114.925 37.5574 115.081 37.6414 115.284 37.6414C115.436 37.6414 115.652 37.5321 115.932 37.3134L116.052 37.4654L115.436 37.9494C115.329 37.9707 115.201 37.9814 115.052 37.9814C114.876 37.9814 114.717 37.9361 114.576 37.8454C114.437 37.7521 114.328 37.6267 114.248 37.4694C114.17 37.3121 114.132 37.1387 114.132 36.9494C114.132 36.7441 114.189 36.5507 114.304 36.3694C114.421 36.1881 114.568 36.0441 114.744 35.9374C114.92 35.8307 115.09 35.7774 115.256 35.7774ZM117.789 35.7774C117.965 35.7774 118.122 35.8241 118.261 35.9174C118.402 36.0081 118.511 36.1321 118.589 36.2894C118.669 36.4467 118.709 36.6201 118.709 36.8094C118.709 37.0147 118.646 37.2081 118.521 37.3894C118.395 37.5681 118.238 37.7121 118.049 37.8214C117.862 37.9281 117.681 37.9814 117.505 37.9814C117.329 37.9814 117.17 37.9361 117.029 37.8454C116.89 37.7521 116.781 37.6267 116.701 37.4694C116.623 37.3121 116.585 37.1387 116.585 36.9494C116.585 36.7441 116.647 36.5521 116.773 36.3734C116.898 36.1921 117.054 36.0481 117.241 35.9414C117.43 35.8321 117.613 35.7774 117.789 35.7774ZM117.557 36.1134C117.255 36.1134 117.105 36.3281 117.105 36.7574C117.105 37.0107 117.159 37.2227 117.269 37.3934C117.378 37.5614 117.534 37.6454 117.737 37.6454C118.038 37.6454 118.189 37.4294 118.189 36.9974C118.189 36.7467 118.134 36.5374 118.025 36.3694C117.915 36.1987 117.759 36.1134 117.557 36.1134ZM120.244 37.9414H119.128V37.8174L119.484 37.5374V35.0774L119.128 34.8294V34.7054L119.812 34.4494H119.964V37.6414L120.324 37.7814L120.244 37.9414ZM122.769 37.9414H122.009V37.5934L121.557 37.9494C121.503 37.9707 121.437 37.9814 121.357 37.9814C121.127 37.9814 120.961 37.9241 120.857 37.8094C120.755 37.6947 120.705 37.5574 120.705 37.3974C120.705 37.3014 120.739 37.2067 120.809 37.1134C120.878 37.0201 120.977 36.9321 121.105 36.8494H122.009V36.5934C122.009 36.4201 121.962 36.2974 121.869 36.2254C121.778 36.1534 121.653 36.1174 121.493 36.1174C121.327 36.1174 121.125 36.2174 120.885 36.4174L120.765 36.2654L121.341 35.8094C121.447 35.7881 121.575 35.7774 121.725 35.7774C121.967 35.7774 122.155 35.8374 122.289 35.9574C122.422 36.0747 122.489 36.2467 122.489 36.4734V37.6414L122.849 37.7814L122.769 37.9414ZM121.485 37.6414C121.647 37.6414 121.822 37.5667 122.009 37.4174V37.0134H121.301C121.266 37.0561 121.241 37.0987 121.225 37.1414C121.211 37.1841 121.205 37.2307 121.205 37.2814C121.205 37.3801 121.23 37.4654 121.281 37.5374C121.331 37.6067 121.399 37.6414 121.485 37.6414ZM124.285 37.9414H123.169V37.8174L123.525 37.5374V36.3694L123.169 36.1214V35.9974L123.853 35.7414H124.005V37.6414L124.365 37.7814L124.285 37.9414ZM123.749 34.5414C123.829 34.5414 123.895 34.5707 123.945 34.6294C123.999 34.6881 124.025 34.7614 124.025 34.8494C124.025 34.9107 124.007 34.9694 123.969 35.0254C123.932 35.0787 123.885 35.1214 123.829 35.1534C123.773 35.1854 123.719 35.2014 123.665 35.2014C123.585 35.2014 123.519 35.1721 123.465 35.1134C123.415 35.0547 123.389 34.9814 123.389 34.8934C123.389 34.8321 123.408 34.7747 123.445 34.7214C123.483 34.6654 123.529 34.6214 123.585 34.5894C123.641 34.5574 123.696 34.5414 123.749 34.5414ZM126.168 35.7814C126.256 35.7814 126.333 35.8054 126.4 35.8534C126.467 35.9014 126.519 35.9681 126.556 36.0534L126.292 36.3854H126.14C126.129 36.3187 126.109 36.2721 126.08 36.2454C126.053 36.2161 126.016 36.2014 125.968 36.2014C125.909 36.2014 125.847 36.2174 125.78 36.2494C125.716 36.2787 125.643 36.3361 125.56 36.4214V37.6134L126.12 37.7854L126.04 37.9454H124.724V37.8214L125.08 37.5414V36.4094L124.724 36.2014V36.0774L125.408 35.7414L125.532 36.2334L125.948 35.8094C126.004 35.7881 126.077 35.7774 126.168 35.7774V35.7814ZM128.162 37.9494C128.055 37.9707 127.927 37.9814 127.778 37.9814C127.602 37.9814 127.443 37.9361 127.302 37.8454C127.163 37.7521 127.054 37.6267 126.974 37.4694C126.897 37.3121 126.858 37.1387 126.858 36.9494C126.858 36.7441 126.921 36.5521 127.046 36.3734C127.171 36.1921 127.327 36.0481 127.514 35.9414C127.703 35.8321 127.886 35.7774 128.062 35.7774C128.315 35.7774 128.511 35.8774 128.65 36.0774C128.791 36.2774 128.862 36.5414 128.862 36.8694H127.382C127.398 37.0961 127.459 37.2814 127.566 37.4254C127.675 37.5694 127.823 37.6414 128.01 37.6414C128.183 37.6414 128.43 37.5067 128.75 37.2374L128.87 37.3894L128.162 37.9494ZM127.83 36.1134C127.542 36.1134 127.391 36.3107 127.378 36.7054H128.314C128.29 36.5614 128.265 36.4521 128.238 36.3774C128.214 36.3001 128.17 36.2374 128.106 36.1894C128.045 36.1387 127.953 36.1134 127.83 36.1134Z" fill="white"/>
<path d="M56.1926 11.3091C57.9133 11.3091 59.2808 11.7208 60.2951 12.5443C61.3139 13.3678 61.8256 14.4792 61.8256 15.8765C61.8256 16.0442 61.8075 16.3264 61.7713 16.7229C61.6082 17.7713 61.1939 18.6959 60.5306 19.4984C59.8717 20.2971 59.0182 20.9167 57.9676 21.3589C56.9216 21.7973 55.7602 22.0147 54.481 22.0147H50.4147C50.3174 22.0147 50.2472 22.0661 50.2064 22.1672L49.3189 28.374C49.2646 28.6599 49.0767 28.801 48.7574 28.801H45.6783C45.3636 28.801 45.2255 28.6599 45.2617 28.374L47.6888 11.7361C47.7295 11.4521 47.9084 11.3091 48.2231 11.3091H56.1926ZM54.4448 19.1934C55.3911 19.1934 56.1836 18.9322 56.8175 18.408C57.4514 17.8857 57.7684 17.2242 57.7684 16.4255C57.7684 15.7964 57.5284 15.2951 57.053 14.9234C56.582 14.5478 55.9504 14.3591 55.1602 14.3591H51.5468C51.4426 14.3591 51.3747 14.4087 51.3385 14.504L50.6864 19.0485C50.6683 19.1457 50.7158 19.1934 50.8313 19.1934H54.4448Z" fill="white"/>
<path d="M71.4815 15.8003C72.0973 15.8003 72.5909 15.9032 72.9667 16.1053C73.1229 16.172 73.2022 16.2711 73.2022 16.4027C73.2022 16.4541 73.184 16.5285 73.1478 16.6238L72.2241 19.2468C72.1879 19.3803 72.1245 19.466 72.0339 19.5061C71.9433 19.548 71.8098 19.5518 71.6354 19.5213C71.3139 19.4565 71.0377 19.4222 70.8022 19.4222C70.6619 19.4222 70.4355 19.4374 70.123 19.4679C69.428 19.5194 68.8099 19.7463 68.2665 20.1466C67.7231 20.5431 67.4107 21.0578 67.3337 21.6868L66.3556 28.374C66.3194 28.66 66.1315 28.801 65.7941 28.801H62.7422C62.4026 28.801 62.2554 28.66 62.2984 28.374L64.0463 16.4027C64.087 16.1186 64.275 15.9757 64.6078 15.9757H67.6597C67.9971 15.9757 68.1442 16.1186 68.1035 16.4027L67.9858 17.1728C67.9676 17.2395 67.9767 17.2834 68.0129 17.3024C68.0537 17.3177 68.1057 17.3005 68.1669 17.2491C69.0725 16.2845 70.1774 15.8003 71.4815 15.8003Z" fill="white"/>
<path d="M79.777 28.9993C78.1582 28.9993 76.8247 28.6332 75.7741 27.9012C74.7281 27.1692 74.0897 26.1742 73.8542 24.9122C73.775 24.5615 73.7365 24.1268 73.7365 23.6083C73.7365 23.1966 73.7659 22.7829 73.827 22.3655C73.9833 21.2979 74.2572 20.4173 74.6512 19.7196C75.267 18.49 76.1953 17.5274 77.4405 16.8297C78.6835 16.1282 80.1143 15.7774 81.7331 15.7774C83.3135 15.7774 84.6085 16.1282 85.6183 16.8297C86.6258 17.5274 87.2688 18.4824 87.5473 19.6967C87.6423 20.1961 87.6922 20.6765 87.6922 21.1378C87.6922 21.5248 87.6605 21.9156 87.6016 22.3121C87.5042 23.1108 87.2575 23.9515 86.859 24.836C86.2296 26.1322 85.2923 27.1521 84.0425 27.8936C82.7973 28.6313 81.3754 28.9993 79.777 28.9993ZM80.2208 25.9797C80.8547 25.9797 81.4071 25.8158 81.878 25.4841C82.3535 25.1486 82.7407 24.6911 83.0372 24.1116C83.2546 23.6655 83.4131 23.0822 83.5172 22.3655C83.5716 21.9651 83.5987 21.5915 83.5987 21.2446C83.5987 20.4783 83.3904 19.8778 82.9739 19.4451C82.5618 19.0142 81.9709 18.7969 81.1988 18.7969C80.5694 18.7969 80.0125 18.9551 79.5234 19.2697C79.0389 19.5861 78.6586 20.0284 78.3823 20.5964C78.165 21.0749 78.0065 21.6639 77.9114 22.3655C77.8503 22.7315 77.8208 23.0975 77.8208 23.4635C77.8208 24.2469 78.0223 24.8627 78.4276 25.3087C78.8306 25.7567 79.4283 25.9797 80.2208 25.9797Z" fill="white"/>
<path d="M96.3102 28.9992C94.2137 28.9992 92.5609 28.5932 91.3474 27.7792C90.1339 26.9672 89.5271 25.8615 89.5271 24.4623C89.5271 24.3098 89.5452 24.0849 89.5814 23.7837L89.6448 23.3643C89.7037 23.0803 89.8916 22.9373 90.2063 22.9373H93.2311C93.3873 22.9373 93.5051 22.9678 93.5843 23.0288C93.6613 23.086 93.693 23.1642 93.6749 23.2652L93.6115 23.6083C93.5141 24.2755 93.779 24.836 94.4084 25.2935C95.0424 25.751 95.9231 25.9797 97.0528 25.9797C98.1396 25.9797 98.9637 25.7738 99.5252 25.3621C100.087 24.9465 100.367 24.4375 100.367 23.8371C100.367 23.4711 100.225 23.1642 99.9418 22.9144C99.6565 22.6666 99.2716 22.4455 98.7826 22.2511C98.2981 22.0585 97.5441 21.7897 96.5185 21.4428C95.3525 21.0768 94.3812 20.7165 93.6024 20.36C92.8236 19.9998 92.1625 19.5194 91.6191 18.9189C91.0757 18.3203 90.804 17.5807 90.804 16.7C90.804 16.5837 90.8221 16.376 90.8584 16.0748C91.0757 14.565 91.893 13.366 93.3126 12.4757C94.7367 11.5817 96.4959 11.1337 98.5924 11.1337C99.9554 11.1337 101.155 11.3301 102.188 11.7209C103.225 12.1135 104.026 12.6626 104.588 13.3679C105.154 14.0751 105.439 14.9043 105.439 15.8536C105.439 15.9871 105.416 16.2025 105.376 16.5018L105.321 16.7534C105.278 17.0336 105.099 17.1728 104.787 17.1728H101.762C101.429 17.1728 101.282 17.0927 101.318 16.9288L101.346 16.6771C101.447 15.9756 101.205 15.3809 100.621 14.8929C100.041 14.4011 99.1675 14.1532 98.0037 14.1532C97.0121 14.1532 96.2378 14.342 95.6763 14.7175C95.1148 15.0949 94.8341 15.6134 94.8341 16.273C94.8341 16.6238 94.9699 16.9288 95.2416 17.188C95.5178 17.4473 95.9299 17.6894 96.4732 17.9124C97.0166 18.1373 97.8317 18.4137 98.9184 18.7435C100.161 19.161 101.119 19.5175 101.789 19.811C102.464 20.1008 103.078 20.5335 103.628 21.1073C104.182 21.6773 104.461 22.4036 104.461 23.2881C104.461 23.4215 104.438 23.6369 104.397 23.9362C104.264 24.9541 103.84 25.8463 103.13 26.6126C102.416 27.3751 101.472 27.966 100.295 28.3816C99.1222 28.7934 97.7955 28.9992 96.3102 28.9992Z" fill="white"/>
<path d="M107.004 28.801C106.689 28.801 106.551 28.6599 106.588 28.374L109.024 11.759C109.06 11.4807 109.237 11.3396 109.558 11.3396H112.637C112.974 11.3396 113.113 11.4807 113.054 11.759L110.654 28.374C110.593 28.6599 110.405 28.801 110.092 28.801H107.004Z" fill="white"/>
<path d="M120.871 28.9992C118.775 28.9992 117.122 28.5932 115.908 27.7792C114.695 26.9672 114.088 25.8615 114.088 24.4623C114.088 24.3098 114.106 24.0849 114.142 23.7837L114.206 23.3643C114.265 23.0803 114.453 22.9373 114.767 22.9373H117.792C117.948 22.9373 118.066 22.9678 118.145 23.0288C118.222 23.086 118.254 23.1642 118.236 23.2652L118.173 23.6083C118.075 24.2755 118.34 24.836 118.969 25.2935C119.603 25.751 120.484 25.9797 121.614 25.9797C122.701 25.9797 123.525 25.7738 124.086 25.3621C124.648 24.9465 124.928 24.4375 124.928 23.8371C124.928 23.4711 124.786 23.1642 124.503 22.9144C124.218 22.6666 123.833 22.4455 123.344 22.2511C122.859 22.0585 122.105 21.7897 121.08 21.4428C119.914 21.0768 118.942 20.7165 118.163 20.36C117.385 19.9998 116.724 19.5194 116.18 18.9189C115.637 18.3203 115.365 17.5807 115.365 16.7C115.365 16.5837 115.383 16.376 115.419 16.0748C115.637 14.565 116.454 13.366 117.874 12.4757C119.298 11.5817 121.057 11.1337 123.153 11.1337C124.516 11.1337 125.716 11.3301 126.749 11.7209C127.786 12.1135 128.587 12.6626 129.149 13.3679C129.715 14.0751 130 14.9043 130 15.8536C130 15.9871 129.977 16.2025 129.937 16.5018L129.882 16.7534C129.839 17.0336 129.66 17.1728 129.348 17.1728H126.323C125.99 17.1728 125.843 17.0927 125.879 16.9288L125.907 16.6771C126.008 15.9756 125.766 15.3809 125.182 14.8929C124.602 14.4011 123.729 14.1532 122.565 14.1532C121.573 14.1532 120.799 14.342 120.237 14.7175C119.676 15.0949 119.395 15.6134 119.395 16.273C119.395 16.6238 119.531 16.9288 119.803 17.188C120.079 17.4473 120.491 17.6894 121.034 17.9124C121.578 18.1373 122.393 18.4137 123.479 18.7435C124.722 19.161 125.68 19.5175 126.35 19.811C127.025 20.1008 127.639 20.5335 128.189 21.1073C128.743 21.6773 129.022 22.4036 129.022 23.2881C129.022 23.4215 128.999 23.6369 128.958 23.9362C128.825 24.9541 128.402 25.8463 127.691 26.6126C126.977 27.3751 126.033 27.966 124.856 28.3816C123.683 28.7934 122.356 28.9992 120.871 28.9992Z" fill="white"/>
<mask id="mask0_807_4769" style="mask-type:luminance" maskUnits="userSpaceOnUse" x="0" y="0" width="41" height="40">
<path d="M23.4738 18.6364H5.23448C4.52809 18.6364 4.01641 18.0072 4.20659 17.3716L9.2147 0.728114C9.34375 0.296717 9.7626 0 10.2426 0H28.4819C29.1883 0 29.6999 0.631313 29.5098 1.26473L24.5016 17.9104C24.3726 18.3396 23.9515 18.6364 23.4738 18.6364ZM11.6282 31.1995L14.2047 22.6305C14.3971 21.9949 13.8855 21.3657 13.1768 21.3657H3.80133C3.32361 21.3657 2.90249 21.6625 2.77344 22.0918L0.194677 30.6608C0.00449571 31.2963 0.516174 31.9255 1.22256 31.9255H10.6003C11.078 31.9255 11.4991 31.6288 11.6282 31.1995ZM16.3714 22.0918L11.3656 38.7353C11.1731 39.3708 11.6848 40 12.3934 40H30.6305C31.1104 40 31.5293 39.7033 31.6606 39.274L36.6665 22.6305C36.8589 21.9949 36.345 21.3657 35.6386 21.3657H17.3993C16.9216 21.3657 16.5005 21.6625 16.3714 22.0918ZM29.2471 8.80051L26.6684 17.3716C26.4759 18.0072 26.9899 18.6364 27.6962 18.6364H37.0717C37.5494 18.6364 37.9706 18.3396 38.0996 17.9104L40.6784 9.33923C40.8685 8.7037 40.3569 8.0745 39.6505 8.0745H30.275C29.795 8.0745 29.3762 8.37121 29.2471 8.80051Z" fill="white"/>
</mask>
<g mask="url(#mask0_807_4769)">
<path d="M0.0045166 0V40H40.8618V0H0.0045166Z" fill="white"/>
</g>
</svg>
