<svg width="201" height="67" viewBox="0 0 201 67" fill="none" xmlns="http://www.w3.org/2000/svg">
<g clip-path="url(#clip0_750_1215)">
<mask id="mask0_750_1215" style="mask-type:luminance" maskUnits="userSpaceOnUse" x="0" y="0" width="64" height="67">
<path d="M0.663208 0.984375H63.2222V66.3244H0.663208V0.984375Z" fill="white"/>
</mask>
<g mask="url(#mask0_750_1215)">
<mask id="mask1_750_1215" style="mask-type:luminance" maskUnits="userSpaceOnUse" x="0" y="0" width="64" height="67">
<path d="M36.6632 31.4269H8.69102C7.60768 31.4269 6.82293 30.3991 7.11462 29.3609L14.7951 2.17375C14.9931 1.46906 15.6354 0.984375 16.3715 0.984375H44.3438C45.4271 0.984375 46.2118 2.01562 45.9202 3.05031L38.2396 30.241C38.0417 30.9422 37.3958 31.4269 36.6632 31.4269ZM18.4965 51.9487L22.448 37.9513C22.7431 36.9132 21.9583 35.8853 20.8715 35.8853H6.49307C5.76043 35.8853 5.11459 36.37 4.91668 37.0712L0.961818 51.0688C0.670151 52.1069 1.45488 53.1347 2.53821 53.1347H16.9201C17.6528 53.1347 18.2986 52.65 18.4965 51.9487ZM25.7708 37.0712L18.0938 64.2584C17.7986 65.2966 18.5833 66.3244 19.6701 66.3244H47.6389C48.375 66.3244 49.0174 65.8397 49.2188 65.1385L56.8958 37.9513C57.191 36.9132 56.4028 35.8853 55.3195 35.8853H27.3472C26.6146 35.8853 25.9688 36.37 25.7708 37.0712ZM45.5173 15.36L41.5625 29.3609C41.2673 30.3991 42.0555 31.4269 43.1389 31.4269H57.5173C58.25 31.4269 58.8958 30.9422 59.0938 30.241L63.0486 16.24C63.3403 15.2019 62.5555 14.174 61.4722 14.174H47.0938C46.3577 14.174 45.7153 14.6587 45.5173 15.36Z" fill="white"/>
</mask>
<g mask="url(#mask1_750_1215)">
<path d="M0.670151 0.984375V66.3244H63.3299V0.984375H0.670151Z" fill="url(#paint0_linear_750_1215)"/>
</g>
</g>
<path d="M86.852 19.4875C89.4914 19.4875 91.588 20.23 93.144 21.715C94.706 23.2 95.4914 25.2041 95.4914 27.7238C95.4914 28.0263 95.4634 28.535 95.408 29.2501C95.158 31.1407 94.522 32.8079 93.5047 34.255C92.4947 35.6954 91.1854 36.8125 89.5747 37.61C87.97 38.4007 86.1887 38.7925 84.2274 38.7925H77.9914C77.842 38.7925 77.734 38.8853 77.6714 39.0676L76.3107 50.26C76.2274 50.7757 75.9387 51.0301 75.4494 51.0301H70.7274C70.2447 51.0301 70.0327 50.7757 70.088 50.26L73.8107 20.2576C73.8727 19.7453 74.1474 19.4875 74.63 19.4875H86.852ZM84.1714 33.7051C85.6227 33.7051 86.838 33.2341 87.8107 32.2888C88.7827 31.347 89.2687 30.1541 89.2687 28.7138C89.2687 27.5794 88.9007 26.6753 88.1714 26.005C87.4494 25.3279 86.4807 24.9875 85.2687 24.9875H79.7274C79.5674 24.9875 79.4634 25.077 79.408 25.2488L78.408 33.4438C78.38 33.6191 78.4527 33.7051 78.63 33.7051H84.1714Z" fill="#8C52FF"/>
<path d="M110.299 27.5864C111.244 27.5864 112.001 27.772 112.577 28.1363C112.817 28.2567 112.938 28.4354 112.938 28.6726C112.938 28.7654 112.911 28.8995 112.855 29.0714L111.438 33.8013C111.383 34.042 111.285 34.1967 111.147 34.2689C111.007 34.3445 110.803 34.3514 110.535 34.2963C110.043 34.1795 109.619 34.1176 109.257 34.1176C109.043 34.1176 108.695 34.1451 108.216 34.2001C107.15 34.2929 106.202 34.702 105.369 35.4239C104.535 36.1388 104.056 37.067 103.938 38.2013L102.438 50.2601C102.383 50.7757 102.095 51.0301 101.577 51.0301H96.8967C96.376 51.0301 96.15 50.7757 96.216 50.2601L98.8967 28.6726C98.9593 28.1604 99.2473 27.9026 99.7573 27.9026H104.438C104.955 27.9026 105.181 28.1604 105.119 28.6726L104.938 30.0614C104.911 30.1817 104.924 30.2608 104.98 30.2951C105.043 30.3226 105.122 30.2916 105.216 30.1988C106.605 28.4595 108.299 27.5864 110.299 27.5864Z" fill="#8C52FF"/>
<path d="M123.021 51.3876C120.539 51.3876 118.494 50.7276 116.883 49.4076C115.279 48.0876 114.299 46.2932 113.938 44.0176C113.817 43.3851 113.757 42.6014 113.757 41.6663C113.757 40.9238 113.803 40.1779 113.897 39.4251C114.136 37.5001 114.556 35.912 115.161 34.6538C116.105 32.4366 117.529 30.7007 119.438 29.4426C121.345 28.1776 123.539 27.5451 126.021 27.5451C128.445 27.5451 130.431 28.1776 131.98 29.4426C133.525 30.7007 134.511 32.4229 134.938 34.6126C135.084 35.5132 135.161 36.3795 135.161 37.2113C135.161 37.9092 135.112 38.6138 135.021 39.3288C134.872 40.7691 134.494 42.2851 133.883 43.8801C132.917 46.2176 131.48 48.0567 129.563 49.3938C127.653 50.7242 125.473 51.3876 123.021 51.3876ZM123.702 45.9426C124.674 45.9426 125.521 45.647 126.244 45.0488C126.973 44.4438 127.567 43.6188 128.021 42.5738C128.355 41.7695 128.598 40.7176 128.757 39.4251C128.841 38.7032 128.883 38.0295 128.883 37.4039C128.883 36.0219 128.563 34.9392 127.924 34.1588C127.293 33.3819 126.386 32.9901 125.202 32.9901C124.237 32.9901 123.383 33.2754 122.633 33.8426C121.889 34.4132 121.306 35.2107 120.883 36.2351C120.549 37.0979 120.306 38.1601 120.161 39.4251C120.067 40.0851 120.021 40.7451 120.021 41.4051C120.021 42.8179 120.331 43.9282 120.952 44.7326C121.57 45.5404 122.487 45.9426 123.702 45.9426Z" fill="#8C52FF"/>
<path d="M148.369 51.3876C145.154 51.3876 142.619 50.6554 140.759 49.1876C138.897 47.7232 137.967 45.7295 137.967 43.2063C137.967 42.9314 137.995 42.5257 138.05 41.9826L138.147 41.2263C138.237 40.7142 138.526 40.4564 139.009 40.4564H143.647C143.887 40.4564 144.067 40.5114 144.189 40.6214C144.307 40.7245 144.355 40.8655 144.328 41.0476L144.231 41.6664C144.081 42.8695 144.487 43.8801 145.453 44.7051C146.425 45.5301 147.776 45.9426 149.509 45.9426C151.175 45.9426 152.439 45.5714 153.3 44.8289C154.161 44.0795 154.592 43.1617 154.592 42.0789C154.592 41.4189 154.373 40.8655 153.939 40.4151C153.501 39.9683 152.911 39.5695 152.161 39.2189C151.418 38.8717 150.262 38.387 148.689 37.7613C146.901 37.1013 145.411 36.4517 144.217 35.8089C143.022 35.1592 142.009 34.2929 141.175 33.2101C140.342 32.1308 139.925 30.797 139.925 29.2089C139.925 28.9992 139.953 28.6245 140.009 28.0814C140.342 25.3589 141.595 23.1967 143.772 21.5913C145.956 19.9792 148.654 19.1714 151.869 19.1714C153.96 19.1714 155.8 19.5254 157.383 20.2301C158.973 20.9383 160.203 21.9283 161.064 23.2001C161.932 24.4754 162.369 25.9708 162.369 27.6826C162.369 27.9233 162.335 28.3117 162.272 28.8513L162.189 29.3051C162.123 29.8105 161.849 30.0614 161.369 30.0614H156.731C156.22 30.0614 155.995 29.917 156.05 29.6214L156.092 29.1676C156.248 27.9026 155.877 26.8301 154.981 25.9501C154.092 25.0633 152.751 24.6164 150.967 24.6164C149.446 24.6164 148.259 24.9567 147.397 25.6338C146.536 26.3145 146.105 27.2495 146.105 28.4388C146.105 29.0714 146.314 29.6214 146.731 30.0888C147.154 30.5564 147.786 30.9929 148.619 31.3951C149.453 31.8008 150.703 32.2992 152.369 32.8938C154.276 33.6467 155.745 34.2895 156.772 34.8189C157.807 35.3414 158.748 36.1217 159.592 37.1564C160.443 38.1842 160.869 39.4938 160.869 41.0889C160.869 41.3295 160.835 41.7179 160.772 42.2576C160.567 44.0932 159.918 45.702 158.828 47.0838C157.734 48.4589 156.286 49.5245 154.481 50.2739C152.682 51.0164 150.647 51.3876 148.369 51.3876Z" fill="#FFBD59"/>
<path d="M164.77 51.0301C164.287 51.0301 164.075 50.7757 164.131 50.2601L167.867 20.2988C167.923 19.797 168.193 19.5426 168.687 19.5426H173.409C173.926 19.5426 174.138 19.797 174.048 20.2988L170.367 50.2601C170.273 50.7757 169.985 51.0301 169.506 51.0301H164.77Z" fill="#FFBD59"/>
<path d="M186.037 51.3876C182.822 51.3876 180.287 50.6554 178.426 49.1876C176.565 47.7232 175.635 45.7295 175.635 43.2063C175.635 42.9314 175.662 42.5257 175.718 41.9826L175.815 41.2263C175.905 40.7142 176.193 40.4564 176.676 40.4564H181.315C181.555 40.4564 181.735 40.5114 181.857 40.6214C181.975 40.7245 182.023 40.8655 181.995 41.0476L181.898 41.6664C181.749 42.8695 182.155 43.8801 183.121 44.7051C184.093 45.5301 185.443 45.9426 187.176 45.9426C188.843 45.9426 190.107 45.5714 190.968 44.8289C191.829 44.0795 192.259 43.1617 192.259 42.0789C192.259 41.4189 192.041 40.8655 191.607 40.4151C191.169 39.9683 190.579 39.5695 189.829 39.2189C189.086 38.8717 187.929 38.387 186.357 37.7613C184.569 37.1013 183.079 36.4517 181.885 35.8089C180.69 35.1592 179.676 34.2929 178.843 33.2101C178.009 32.1308 177.593 30.797 177.593 29.2089C177.593 28.9992 177.621 28.6245 177.676 28.0814C178.009 25.3589 179.263 23.1967 181.44 21.5913C183.624 19.9792 186.322 19.1714 189.537 19.1714C191.627 19.1714 193.468 19.5254 195.051 20.2301C196.641 20.9383 197.871 21.9283 198.731 23.2001C199.599 24.4754 200.037 25.9708 200.037 27.6826C200.037 27.9233 200.003 28.3117 199.94 28.8513L199.857 29.3051C199.791 29.8105 199.516 30.0614 199.037 30.0614H194.398C193.888 30.0614 193.662 29.917 193.718 29.6214L193.759 29.1676C193.915 27.9026 193.544 26.8301 192.648 25.9501C191.759 25.0633 190.419 24.6164 188.635 24.6164C187.113 24.6164 185.926 24.9567 185.065 25.6338C184.204 26.3145 183.773 27.2495 183.773 28.4388C183.773 29.0714 183.981 29.6214 184.398 30.0888C184.822 30.5564 185.454 30.9929 186.287 31.3951C187.121 31.8008 188.371 32.2992 190.037 32.8938C191.943 33.6467 193.412 34.2895 194.44 34.8189C195.475 35.3414 196.415 36.1217 197.259 37.1564C198.11 38.1842 198.537 39.4938 198.537 41.0889C198.537 41.3295 198.503 41.7179 198.44 42.2576C198.235 44.0932 197.586 45.702 196.495 47.0838C195.402 48.4589 193.954 49.5245 192.148 50.2739C190.349 51.0164 188.315 51.3876 186.037 51.3876Z" fill="#FFBD59"/>
<path d="M138.808 58.4085C138.575 58.4085 138.371 58.3707 138.197 58.2986C138.03 58.2161 137.895 58.1061 137.794 57.9686C137.701 57.831 137.655 57.673 137.655 57.4873V57.4048C137.655 57.3601 137.683 57.336 137.739 57.336H138.197C138.253 57.336 138.28 57.3567 138.28 57.3911V57.4461C138.28 57.5664 138.329 57.666 138.433 57.7485C138.544 57.831 138.687 57.8723 138.863 57.8723C139.02 57.8723 139.135 57.8414 139.211 57.7761C139.284 57.7039 139.322 57.6214 139.322 57.5286C139.322 57.4564 139.297 57.398 139.253 57.3498C139.204 57.3052 139.141 57.2639 139.058 57.2261C138.981 57.1917 138.853 57.1402 138.669 57.0748C138.475 57.0026 138.308 56.9339 138.169 56.8686C138.03 56.7964 137.912 56.7001 137.822 56.5798C137.728 56.4526 137.683 56.3014 137.683 56.1261C137.683 55.9542 137.728 55.8029 137.822 55.6723C137.912 55.5348 138.037 55.4317 138.197 55.356C138.363 55.2839 138.551 55.2461 138.766 55.2461C138.989 55.2461 139.187 55.2873 139.363 55.3698C139.547 55.4523 139.687 55.5692 139.78 55.7136C139.881 55.851 139.933 56.0126 139.933 56.1948V56.2361C139.933 56.2911 139.909 56.3186 139.863 56.3186H139.391C139.343 56.3186 139.322 56.3048 139.322 56.2773V56.2223C139.322 56.1055 139.266 56.0023 139.155 55.9198C139.051 55.8305 138.912 55.7823 138.739 55.7823C138.599 55.7823 138.489 55.8167 138.405 55.8786C138.329 55.9335 138.294 56.0126 138.294 56.1123C138.294 56.188 138.315 56.2498 138.363 56.3048C138.409 56.353 138.475 56.3977 138.558 56.4423C138.648 56.4802 138.794 56.5317 138.989 56.5935C139.19 56.6692 139.353 56.738 139.475 56.7998C139.593 56.8548 139.701 56.9442 139.794 57.0611C139.895 57.171 139.947 57.3223 139.947 57.5148C139.947 57.6901 139.898 57.8448 139.808 57.9823C139.714 58.1198 139.579 58.2264 139.405 58.2986C139.239 58.3707 139.037 58.4085 138.808 58.4085Z" fill="#8C52FF"/>
<path d="M140.342 59.2474C140.314 59.2474 140.301 59.2198 140.301 59.1649V58.8073C140.301 58.7592 140.307 58.7386 140.328 58.7386H140.356C140.54 58.7386 140.669 58.7145 140.745 58.6699C140.828 58.6218 140.887 58.5255 140.925 58.3811C140.932 58.3708 140.932 58.3639 140.925 58.3536L140.203 56.1949C140.203 56.188 140.203 56.1776 140.203 56.1673C140.203 56.1502 140.207 56.1364 140.217 56.1261C140.235 56.1192 140.252 56.1124 140.273 56.1124H140.787C140.821 56.1124 140.849 56.133 140.87 56.1673L141.231 57.4736C141.231 57.4942 141.235 57.5011 141.245 57.5011C141.252 57.5011 141.262 57.4942 141.273 57.4736L141.62 56.1673C141.62 56.133 141.647 56.1124 141.703 56.1124H142.203C142.231 56.1124 142.248 56.1227 142.259 56.1398C142.276 56.1502 142.279 56.1673 142.273 56.1949L141.509 58.4498C141.432 58.6595 141.359 58.8211 141.287 58.9311C141.21 59.0411 141.099 59.1168 140.953 59.1649C140.814 59.2198 140.62 59.2474 140.37 59.2474H140.342Z" fill="#8C52FF"/>
<path d="M143.503 58.3948C143.309 58.3948 143.135 58.3673 142.989 58.3123C142.84 58.2574 142.725 58.1817 142.642 58.0786C142.566 57.9789 142.531 57.8689 142.531 57.7486V57.7211C142.531 57.6764 142.552 57.6523 142.601 57.6523H143.045C143.101 57.6523 143.128 57.6592 143.128 57.6661V57.7073C143.128 57.7726 143.159 57.8276 143.225 57.8723C143.299 57.9205 143.392 57.9411 143.503 57.9411C143.604 57.9411 143.684 57.9239 143.739 57.8861C143.802 57.8414 143.837 57.7898 143.837 57.7348C143.837 57.6799 143.809 57.6386 143.753 57.6111C143.705 57.5836 143.621 57.5561 143.503 57.5286C143.354 57.4942 143.243 57.4598 143.17 57.4324C142.975 57.3602 142.823 57.2777 142.711 57.1849C142.601 57.0955 142.545 56.9614 142.545 56.7861C142.545 56.5661 142.628 56.3942 142.795 56.2636C142.969 56.1364 143.198 56.0711 143.475 56.0711C143.67 56.0711 143.837 56.1055 143.975 56.1673C144.121 56.2223 144.233 56.3048 144.309 56.4148C144.392 56.5249 144.434 56.6486 144.434 56.7861C144.434 56.8067 144.423 56.8205 144.406 56.8273C144.395 56.8376 144.378 56.8411 144.351 56.8411H143.92C143.871 56.8411 143.851 56.8342 143.851 56.8136V56.7861C143.851 56.7242 143.812 56.6692 143.739 56.6211C143.673 56.5764 143.59 56.5523 143.489 56.5523C143.385 56.5523 143.302 56.573 143.239 56.6074C143.173 56.6452 143.142 56.6967 143.142 56.7586C143.142 56.8136 143.17 56.8617 143.225 56.8961C143.288 56.9236 143.392 56.9511 143.531 56.9786C143.621 56.9992 143.705 57.0199 143.781 57.0473C143.993 57.1126 144.159 57.1951 144.281 57.2948C144.409 57.3877 144.475 57.5251 144.475 57.7073C144.475 57.9274 144.385 58.0992 144.211 58.2161C144.035 58.3364 143.799 58.3948 143.503 58.3948Z" fill="#8C52FF"/>
<path d="M146.142 56.5248C146.142 56.5798 146.117 56.6073 146.072 56.6073H145.669C145.649 56.6073 145.642 56.6176 145.642 56.6349V57.5424C145.642 57.6352 145.659 57.7039 145.697 57.7486C145.743 57.7967 145.809 57.8173 145.892 57.8173H146.017C146.072 57.8173 146.1 57.8448 146.1 57.8998V58.2711C146.1 58.3193 146.072 58.3467 146.017 58.3536C145.905 58.3639 145.822 58.3674 145.767 58.3674C145.523 58.3674 145.343 58.3261 145.225 58.2436C145.103 58.1611 145.037 58.0064 145.031 57.7761V56.6349C145.031 56.6176 145.02 56.6073 145.003 56.6073H144.781C144.732 56.6073 144.711 56.5798 144.711 56.5248V56.1811C144.711 56.1364 144.732 56.1123 144.781 56.1123H145.003C145.02 56.1123 145.031 56.1055 145.031 56.0848V55.5761C145.031 55.5314 145.059 55.5073 145.114 55.5073H145.559C145.614 55.5073 145.642 55.5314 145.642 55.5761V56.0848C145.642 56.1055 145.649 56.1123 145.669 56.1123H146.072C146.117 56.1123 146.142 56.1364 146.142 56.1811V56.5248Z" fill="#8C52FF"/>
<path d="M147.623 57.8724C147.817 57.8724 147.963 57.8105 148.067 57.6799C148.084 57.6627 148.101 57.6523 148.123 57.6523C148.14 57.6523 148.157 57.6593 148.178 57.6661L148.428 57.9136C148.445 57.9342 148.456 57.9514 148.456 57.9686C148.456 57.9893 148.449 58.003 148.442 58.0099C148.337 58.1405 148.209 58.2402 148.053 58.3123C147.903 58.3742 147.741 58.4086 147.567 58.4086C147.289 58.4086 147.06 58.3398 146.886 58.2024C146.709 58.058 146.587 57.8655 146.525 57.6249C146.487 57.4977 146.469 57.3601 146.469 57.2124C146.469 57.0474 146.487 56.9064 146.525 56.7861C146.581 56.5661 146.695 56.3942 146.873 56.2636C147.057 56.1364 147.268 56.0711 147.511 56.0711C147.807 56.0711 148.039 56.1605 148.206 56.3323C148.373 56.4973 148.483 56.7311 148.539 57.0336C148.546 57.1367 148.557 57.2468 148.567 57.3636C148.567 57.4118 148.539 57.4324 148.483 57.4324H147.123C147.101 57.4324 147.095 57.4426 147.095 57.4599C147.101 57.5251 147.112 57.5698 147.123 57.5974C147.157 57.6901 147.219 57.7589 147.303 57.8036C147.393 57.8517 147.501 57.8724 147.623 57.8724ZM147.511 56.6074C147.407 56.6074 147.324 56.6314 147.261 56.6761C147.206 56.7242 147.164 56.7861 147.136 56.8686C147.126 56.9236 147.115 56.9614 147.109 56.9786C147.109 56.9889 147.115 56.9923 147.136 56.9923H147.886C147.903 56.9923 147.914 56.9889 147.914 56.9786C147.914 56.9511 147.907 56.9202 147.9 56.8824C147.873 56.7999 147.824 56.738 147.761 56.6899C147.695 56.6349 147.612 56.6074 147.511 56.6074ZM147.733 55.7136C147.741 55.7239 147.747 55.7377 147.747 55.7548C147.747 55.7823 147.723 55.7961 147.678 55.7961H147.303C147.275 55.7961 147.247 55.7823 147.219 55.7548L146.942 55.3561C146.921 55.3389 146.914 55.3217 146.914 55.3011C146.914 55.2736 146.935 55.2598 146.983 55.2598H147.428C147.473 55.2598 147.501 55.2805 147.511 55.3149L147.733 55.7136Z" fill="#8C52FF"/>
<path d="M151.484 56.0711C151.713 56.0711 151.894 56.1398 152.026 56.2774C152.154 56.4148 152.22 56.6074 152.22 56.8549V58.2986C152.22 58.3467 152.196 58.3673 152.151 58.3673H151.665C151.616 58.3673 151.595 58.3467 151.595 58.2986V56.9923C151.595 56.8754 151.561 56.7826 151.498 56.7173C151.443 56.6452 151.359 56.6074 151.248 56.6074C151.144 56.6074 151.061 56.6452 150.998 56.7173C150.932 56.7826 150.901 56.8754 150.901 56.9923V58.2986C150.901 58.3467 150.877 58.3673 150.831 58.3673H150.359C150.303 58.3673 150.276 58.3467 150.276 58.2986V56.9923C150.276 56.8754 150.241 56.7826 150.179 56.7173C150.113 56.6452 150.029 56.6074 149.929 56.6074C149.835 56.6074 149.755 56.6348 149.693 56.6899C149.627 56.7448 149.589 56.8239 149.581 56.9236V58.2986C149.581 58.3467 149.553 58.3673 149.498 58.3673H149.026C148.977 58.3673 148.957 58.3467 148.957 58.2986V56.1811C148.957 56.1364 148.977 56.1124 149.026 56.1124H149.498C149.553 56.1124 149.581 56.1364 149.581 56.1811V56.3186C149.581 56.3289 149.581 56.3392 149.581 56.3461C149.589 56.3461 149.599 56.3426 149.609 56.3323C149.727 56.1605 149.915 56.0711 150.165 56.0711C150.311 56.0711 150.443 56.1055 150.553 56.1673C150.665 56.2223 150.748 56.3117 150.803 56.4286C150.811 56.4389 150.817 56.4424 150.817 56.4424C150.825 56.4424 150.835 56.4389 150.845 56.4286C150.908 56.3117 150.998 56.2223 151.109 56.1673C151.22 56.1055 151.345 56.0711 151.484 56.0711Z" fill="#8C52FF"/>
<path d="M153.765 57.8723C153.959 57.8723 154.105 57.8105 154.209 57.6799C154.227 57.6626 154.244 57.6523 154.265 57.6523C154.282 57.6523 154.299 57.6592 154.321 57.6661L154.571 57.9136C154.588 57.9342 154.598 57.9514 154.598 57.9686C154.598 57.9892 154.591 58.003 154.585 58.0099C154.48 58.1405 154.352 58.2401 154.195 58.3123C154.046 58.3742 153.883 58.4086 153.709 58.4086C153.431 58.4086 153.203 58.3399 153.029 58.2023C152.852 58.058 152.73 57.8654 152.668 57.6248C152.629 57.4976 152.612 57.3601 152.612 57.2123C152.612 57.0473 152.629 56.9064 152.668 56.7861C152.723 56.5661 152.838 56.3942 153.015 56.2636C153.199 56.1364 153.411 56.0711 153.654 56.0711C153.949 56.0711 154.181 56.1605 154.348 56.3323C154.515 56.4973 154.626 56.7311 154.681 57.0336C154.689 57.1367 154.699 57.2467 154.709 57.3636C154.709 57.4117 154.681 57.4324 154.626 57.4324H153.265C153.244 57.4324 153.237 57.4426 153.237 57.4598C153.244 57.5251 153.255 57.5698 153.265 57.5974C153.299 57.6902 153.362 57.7589 153.445 57.8036C153.536 57.8517 153.643 57.8723 153.765 57.8723ZM153.654 56.6074C153.549 56.6074 153.466 56.6314 153.404 56.6761C153.348 56.7242 153.307 56.7861 153.279 56.8686C153.269 56.9236 153.258 56.9614 153.251 56.9786C153.251 56.9889 153.258 56.9923 153.279 56.9923H154.029C154.046 56.9923 154.057 56.9889 154.057 56.9786C154.057 56.9511 154.049 56.9201 154.043 56.8823C154.015 56.7998 153.966 56.738 153.904 56.6899C153.838 56.6348 153.755 56.6074 153.654 56.6074Z" fill="#8C52FF"/>
<path d="M157.363 55.3561C157.363 55.3114 157.384 55.2874 157.433 55.2874H157.919C157.963 55.2874 157.988 55.3114 157.988 55.3561V58.2986C157.988 58.3467 157.963 58.3673 157.919 58.3673H157.433C157.384 58.3673 157.363 58.3467 157.363 58.2986V58.1749C157.363 58.168 157.356 58.1611 157.349 58.1611C157.339 58.1542 157.335 58.1542 157.335 58.1611C157.203 58.3261 157.033 58.4086 156.821 58.4086C156.617 58.4086 156.436 58.3501 156.279 58.2298C156.13 58.1129 156.023 57.9548 155.96 57.7624C155.911 57.6179 155.891 57.4392 155.891 57.2261C155.891 57.0061 155.919 56.8239 155.974 56.6761C156.037 56.4939 156.144 56.3461 156.293 56.2361C156.439 56.1261 156.617 56.0711 156.821 56.0711C157.043 56.0711 157.213 56.1398 157.335 56.2774C157.335 56.2876 157.339 56.2911 157.349 56.2911C157.356 56.2911 157.363 56.2842 157.363 56.2636V55.3561ZM157.266 57.6661C157.328 57.5664 157.363 57.4255 157.363 57.2398C157.363 57.0473 157.328 56.8961 157.266 56.7861C157.189 56.6692 157.089 56.6074 156.96 56.6074C156.828 56.6074 156.727 56.6623 156.655 56.7724C156.578 56.8927 156.543 57.0473 156.543 57.2398C156.543 57.4151 156.575 57.5561 156.641 57.6661C156.713 57.7967 156.821 57.8586 156.96 57.8586C157.089 57.8586 157.189 57.7967 157.266 57.6661Z" fill="#8C52FF"/>
<path d="M158.422 56.2911C158.384 56.2911 158.359 56.2705 158.353 56.2223L158.297 55.3699V55.3561C158.297 55.3114 158.318 55.2874 158.367 55.2874H158.839C158.901 55.2874 158.929 55.3148 158.922 55.3699L158.867 56.2223C158.856 56.2705 158.828 56.2911 158.783 56.2911H158.422Z" fill="#8C52FF"/>
<path d="M159.557 55.8923C159.436 55.8923 159.339 55.8613 159.266 55.7961C159.2 55.7238 159.169 55.6311 159.169 55.521C159.169 55.411 159.2 55.3251 159.266 55.2598C159.339 55.1876 159.436 55.1498 159.557 55.1498C159.669 55.1498 159.755 55.1876 159.821 55.2598C159.895 55.3251 159.933 55.411 159.933 55.521C159.933 55.6311 159.895 55.7238 159.821 55.7961C159.755 55.8613 159.669 55.8923 159.557 55.8923ZM159.321 58.3673C159.266 58.3673 159.238 58.3466 159.238 58.2985V56.181C159.238 56.1363 159.266 56.1123 159.321 56.1123H159.793C159.839 56.1123 159.863 56.1363 159.863 56.181V58.2985C159.863 58.3466 159.839 58.3673 159.793 58.3673H159.321Z" fill="#8C52FF"/>
<path d="M161.547 56.0711C161.786 56.0711 161.977 56.1467 162.116 56.2911C162.262 56.4286 162.338 56.6211 162.338 56.8686V58.2986C162.338 58.3467 162.314 58.3673 162.269 58.3673H161.797C161.741 58.3673 161.713 58.3467 161.713 58.2986V56.9923C161.713 56.8823 161.679 56.7929 161.616 56.7173C161.55 56.6452 161.463 56.6074 161.352 56.6074C161.241 56.6074 161.151 56.6452 161.088 56.7173C161.022 56.7929 160.991 56.8823 160.991 56.9923V58.2986C160.991 58.3467 160.963 58.3673 160.907 58.3673H160.435C160.387 58.3673 160.366 58.3467 160.366 58.2986V56.1811C160.366 56.1364 160.387 56.1124 160.435 56.1124H160.907C160.963 56.1124 160.991 56.1364 160.991 56.1811V56.3048C160.991 56.3152 160.991 56.3255 160.991 56.3323C160.998 56.3323 161.008 56.3289 161.019 56.3186C161.137 56.1536 161.314 56.0711 161.547 56.0711Z" fill="#8C52FF"/>
<path d="M164.075 56.0986C164.12 56.0986 164.145 56.1261 164.145 56.1811V56.5524C164.145 56.6005 164.12 56.6211 164.075 56.6211H163.672C163.651 56.6211 163.645 56.6314 163.645 56.6486V58.2986C163.645 58.3467 163.617 58.3674 163.561 58.3674H163.089C163.04 58.3674 163.019 58.3467 163.019 58.2986V56.6486C163.019 56.6314 163.009 56.6211 162.991 56.6211H162.755C162.7 56.6211 162.672 56.6005 162.672 56.5524V56.1811C162.672 56.1261 162.7 56.0986 162.755 56.0986H162.991C163.009 56.0986 163.019 56.0917 163.019 56.0711V55.9886C163.019 55.8064 163.047 55.6655 163.103 55.5624C163.158 55.4626 163.245 55.3904 163.367 55.3423C163.495 55.2976 163.672 55.2805 163.895 55.2873H164.047C164.092 55.2873 164.117 55.3114 164.117 55.3561V55.6723C164.117 55.7274 164.092 55.7548 164.047 55.7548H163.922C163.811 55.7548 163.735 55.7789 163.7 55.8236C163.662 55.8614 163.645 55.9302 163.645 56.0298V56.0711C163.645 56.0917 163.651 56.0986 163.672 56.0986H164.075Z" fill="#8C52FF"/>
<path d="M165.531 58.4086C165.271 58.4086 165.052 58.3467 164.879 58.2161C164.701 58.0786 164.58 57.8998 164.517 57.6799C164.469 57.5423 164.448 57.3911 164.448 57.2261C164.448 57.0542 164.469 56.903 164.517 56.7724C164.59 56.5523 164.715 56.3839 164.892 56.2636C165.066 56.1364 165.281 56.0711 165.531 56.0711C165.771 56.0711 165.979 56.1364 166.156 56.2636C166.33 56.3839 166.451 56.5489 166.517 56.7586C166.563 56.8961 166.587 57.0542 166.587 57.2261C166.587 57.3739 166.566 57.5217 166.531 57.6661C166.455 57.8964 166.33 58.0786 166.156 58.2161C165.979 58.3467 165.771 58.4086 165.531 58.4086ZM165.531 57.8723C165.621 57.8723 165.701 57.8449 165.767 57.7898C165.84 57.728 165.892 57.6455 165.92 57.5423C165.937 57.4598 165.948 57.3567 165.948 57.2261C165.948 57.1092 165.937 57.0061 165.92 56.9236C165.892 56.8239 165.84 56.7448 165.767 56.6899C165.701 56.6348 165.618 56.6074 165.517 56.6074C165.413 56.6074 165.33 56.6348 165.267 56.6899C165.201 56.7448 165.149 56.8239 165.115 56.9236C165.094 57.0061 165.087 57.1092 165.087 57.2261C165.087 57.3567 165.094 57.4598 165.115 57.5423C165.149 57.6455 165.201 57.728 165.267 57.7898C165.34 57.8449 165.427 57.8723 165.531 57.8723Z" fill="#8C52FF"/>
<path d="M168.132 56.0711C168.222 56.0711 168.302 56.0917 168.368 56.1261C168.396 56.1467 168.403 56.1776 168.396 56.2223L168.313 56.6761C168.313 56.7036 168.302 56.7242 168.285 56.7311C168.274 56.7414 168.257 56.7414 168.229 56.7311C168.181 56.7242 168.139 56.7173 168.104 56.7173C168.076 56.7173 168.038 56.7173 167.993 56.7173C167.889 56.7277 167.802 56.7689 167.729 56.8411C167.653 56.9064 167.618 56.9992 167.618 57.1161V58.2986C167.618 58.3467 167.59 58.3673 167.535 58.3673H167.063C167.014 58.3673 166.993 58.3467 166.993 58.2986V56.1811C166.993 56.1364 167.014 56.1124 167.063 56.1124H167.535C167.59 56.1124 167.618 56.1364 167.618 56.1811V56.3186C167.618 56.3289 167.618 56.3392 167.618 56.3461C167.625 56.3461 167.635 56.3426 167.646 56.3323C167.764 56.1605 167.927 56.0711 168.132 56.0711Z" fill="#8C52FF"/>
<path d="M171.223 56.0711C171.452 56.0711 171.633 56.1398 171.765 56.2774C171.893 56.4148 171.959 56.6074 171.959 56.8549V58.2986C171.959 58.3467 171.935 58.3673 171.89 58.3673H171.403C171.355 58.3673 171.334 58.3467 171.334 58.2986V56.9923C171.334 56.8754 171.299 56.7826 171.237 56.7173C171.181 56.6452 171.098 56.6074 170.987 56.6074C170.883 56.6074 170.799 56.6452 170.737 56.7173C170.671 56.7826 170.64 56.8754 170.64 56.9923V58.2986C170.64 58.3467 170.615 58.3673 170.57 58.3673H170.098C170.043 58.3673 170.015 58.3467 170.015 58.2986V56.9923C170.015 56.8754 169.98 56.7826 169.917 56.7173C169.851 56.6452 169.768 56.6074 169.667 56.6074C169.574 56.6074 169.494 56.6348 169.431 56.6899C169.365 56.7448 169.327 56.8239 169.32 56.9236V58.2986C169.32 58.3467 169.293 58.3673 169.237 58.3673H168.765C168.716 58.3673 168.695 58.3467 168.695 58.2986V56.1811C168.695 56.1364 168.716 56.1124 168.765 56.1124H169.237C169.293 56.1124 169.32 56.1364 169.32 56.1811V56.3186C169.32 56.3289 169.32 56.3392 169.32 56.3461C169.327 56.3461 169.337 56.3426 169.348 56.3323C169.466 56.1605 169.653 56.0711 169.903 56.0711C170.049 56.0711 170.181 56.1055 170.293 56.1673C170.403 56.2223 170.487 56.3117 170.543 56.4286C170.549 56.4389 170.557 56.4424 170.557 56.4424C170.563 56.4424 170.574 56.4389 170.584 56.4286C170.647 56.3117 170.737 56.2223 170.848 56.1673C170.959 56.1055 171.084 56.0711 171.223 56.0711Z" fill="#8C52FF"/>
<path d="M173.323 56.0711C173.507 56.0711 173.674 56.1055 173.823 56.1673C173.979 56.2327 174.101 56.3255 174.185 56.4424C174.268 56.5523 174.309 56.683 174.309 56.8273V58.2986C174.309 58.3467 174.285 58.3673 174.24 58.3673H173.768C173.712 58.3673 173.685 58.3467 173.685 58.2986V58.1886C173.685 58.1817 173.677 58.1749 173.671 58.1749C173.671 58.168 173.663 58.168 173.657 58.1749C173.518 58.333 173.313 58.4086 173.045 58.4086C172.813 58.4086 172.629 58.3536 172.49 58.2436C172.351 58.1267 172.281 57.9617 172.281 57.7486C172.281 57.5217 172.358 57.3464 172.518 57.2261C172.685 57.0989 172.913 57.0336 173.212 57.0336H173.657C173.674 57.0336 173.685 57.0267 173.685 57.0061V56.9098C173.685 56.8205 173.65 56.7448 173.587 56.6899C173.531 56.6348 173.448 56.6074 173.337 56.6074C173.243 56.6074 173.163 56.6211 173.101 56.6486C173.045 56.6761 173.007 56.7173 172.99 56.7724C172.969 56.8102 172.941 56.8273 172.907 56.8273L172.407 56.7724C172.386 56.7655 172.369 56.7551 172.351 56.7448C172.341 56.738 172.337 56.7242 172.337 56.7036C172.355 56.5867 172.407 56.4802 172.49 56.3873C172.58 56.2876 172.698 56.2086 172.837 56.1536C172.983 56.0986 173.146 56.0711 173.323 56.0711ZM173.226 57.9411C173.355 57.9411 173.462 57.9101 173.545 57.8449C173.636 57.7727 173.685 57.6867 173.685 57.5836V57.4324C173.685 57.4151 173.674 57.4048 173.657 57.4048H173.337C173.205 57.4048 173.101 57.4289 173.018 57.4736C172.941 57.5217 172.907 57.5905 172.907 57.6799C172.907 57.7624 172.935 57.8276 172.99 57.8723C173.053 57.9205 173.132 57.9411 173.226 57.9411Z" fill="#8C52FF"/>
<path d="M176.059 56.5248C176.059 56.5798 176.035 56.6073 175.989 56.6073H175.587C175.566 56.6073 175.559 56.6176 175.559 56.6349V57.5424C175.559 57.6352 175.577 57.7039 175.615 57.7486C175.66 57.7967 175.725 57.8173 175.809 57.8173H175.934C175.989 57.8173 176.017 57.8448 176.017 57.8998V58.2711C176.017 58.3193 175.989 58.3467 175.934 58.3536C175.823 58.3639 175.739 58.3674 175.684 58.3674C175.441 58.3674 175.261 58.3261 175.142 58.2436C175.021 58.1611 174.955 58.0064 174.948 57.7761V56.6349C174.948 56.6176 174.937 56.6073 174.92 56.6073H174.698C174.649 56.6073 174.629 56.5798 174.629 56.5248V56.1811C174.629 56.1364 174.649 56.1123 174.698 56.1123H174.92C174.937 56.1123 174.948 56.1055 174.948 56.0848V55.5761C174.948 55.5314 174.975 55.5073 175.031 55.5073H175.475C175.531 55.5073 175.559 55.5314 175.559 55.5761V56.0848C175.559 56.1055 175.566 56.1123 175.587 56.1123H175.989C176.035 56.1123 176.059 56.1364 176.059 56.1811V56.5248Z" fill="#8C52FF"/>
<path d="M176.789 55.8923C176.668 55.8923 176.571 55.8613 176.498 55.7961C176.432 55.7238 176.401 55.6311 176.401 55.521C176.401 55.411 176.432 55.3251 176.498 55.2598C176.571 55.1876 176.668 55.1498 176.789 55.1498C176.901 55.1498 176.987 55.1876 177.053 55.2598C177.127 55.3251 177.165 55.411 177.165 55.521C177.165 55.6311 177.127 55.7238 177.053 55.7961C176.987 55.8613 176.901 55.8923 176.789 55.8923ZM176.553 58.3673C176.498 58.3673 176.47 58.3466 176.47 58.2985V56.181C176.47 56.1363 176.498 56.1123 176.553 56.1123H177.026C177.071 56.1123 177.095 56.1363 177.095 56.181V58.2985C177.095 58.3466 177.071 58.3673 177.026 58.3673H176.553Z" fill="#8C52FF"/>
<path d="M178.612 58.4086C178.351 58.4086 178.133 58.3467 177.959 58.2161C177.782 58.0786 177.661 57.8998 177.598 57.6799C177.549 57.5423 177.529 57.3911 177.529 57.2261C177.529 57.0542 177.549 56.903 177.598 56.7724C177.671 56.5523 177.796 56.3839 177.973 56.2636C178.147 56.1364 178.362 56.0711 178.612 56.0711C178.851 56.0711 179.06 56.1364 179.237 56.2636C179.411 56.3839 179.532 56.5489 179.598 56.7586C179.643 56.8961 179.667 57.0542 179.667 57.2261C179.667 57.3739 179.647 57.5217 179.612 57.6661C179.535 57.8964 179.411 58.0786 179.237 58.2161C179.06 58.3467 178.851 58.4086 178.612 58.4086ZM178.612 57.8723C178.702 57.8723 178.782 57.8449 178.848 57.7898C178.921 57.728 178.973 57.6455 179.001 57.5423C179.018 57.4598 179.029 57.3567 179.029 57.2261C179.029 57.1092 179.018 57.0061 179.001 56.9236C178.973 56.8239 178.921 56.7448 178.848 56.6899C178.782 56.6348 178.699 56.6074 178.598 56.6074C178.494 56.6074 178.411 56.6348 178.348 56.6899C178.282 56.7448 178.23 56.8239 178.195 56.9236C178.175 57.0061 178.167 57.1092 178.167 57.2261C178.167 57.3567 178.175 57.4598 178.195 57.5423C178.23 57.6455 178.282 57.728 178.348 57.7898C178.421 57.8449 178.508 57.8723 178.612 57.8723Z" fill="#8C52FF"/>
<path d="M181.254 56.0711C181.494 56.0711 181.685 56.1467 181.824 56.2911C181.969 56.4286 182.046 56.6211 182.046 56.8686V58.2986C182.046 58.3467 182.021 58.3673 181.977 58.3673H181.504C181.449 58.3673 181.421 58.3467 181.421 58.2986V56.9923C181.421 56.8823 181.386 56.7929 181.324 56.7173C181.258 56.6452 181.171 56.6074 181.06 56.6074C180.949 56.6074 180.859 56.6452 180.796 56.7173C180.73 56.7929 180.699 56.8823 180.699 56.9923V58.2986C180.699 58.3467 180.671 58.3673 180.615 58.3673H180.143C180.095 58.3673 180.074 58.3467 180.074 58.2986V56.1811C180.074 56.1364 180.095 56.1124 180.143 56.1124H180.615C180.671 56.1124 180.699 56.1364 180.699 56.1811V56.3048C180.699 56.3152 180.699 56.3255 180.699 56.3323C180.706 56.3323 180.716 56.3289 180.727 56.3186C180.845 56.1536 181.021 56.0711 181.254 56.0711Z" fill="#8C52FF"/>
<path d="M184.297 58.3948C184.102 58.3948 183.929 58.3673 183.783 58.3123C183.633 58.2574 183.519 58.1817 183.435 58.0786C183.359 57.9789 183.325 57.8689 183.325 57.7486V57.7211C183.325 57.6764 183.345 57.6523 183.394 57.6523H183.839C183.894 57.6523 183.922 57.6592 183.922 57.6661V57.7073C183.922 57.7726 183.953 57.8276 184.019 57.8723C184.092 57.9205 184.185 57.9411 184.297 57.9411C184.397 57.9411 184.477 57.9239 184.533 57.8861C184.595 57.8414 184.63 57.7898 184.63 57.7348C184.63 57.6799 184.602 57.6386 184.547 57.6111C184.498 57.5836 184.415 57.5561 184.297 57.5286C184.147 57.4942 184.036 57.4598 183.963 57.4324C183.769 57.3602 183.616 57.2777 183.505 57.1849C183.394 57.0955 183.339 56.9614 183.339 56.7861C183.339 56.5661 183.422 56.3942 183.589 56.2636C183.762 56.1364 183.991 56.0711 184.269 56.0711C184.463 56.0711 184.63 56.1055 184.769 56.1673C184.915 56.2223 185.026 56.3048 185.102 56.4148C185.185 56.5249 185.227 56.6486 185.227 56.7861C185.227 56.8067 185.217 56.8205 185.199 56.8273C185.189 56.8376 185.172 56.8411 185.144 56.8411H184.713C184.665 56.8411 184.644 56.8342 184.644 56.8136V56.7861C184.644 56.7242 184.606 56.6692 184.533 56.6211C184.467 56.5764 184.383 56.5523 184.283 56.5523C184.179 56.5523 184.095 56.573 184.033 56.6074C183.967 56.6452 183.935 56.6967 183.935 56.7586C183.935 56.8136 183.963 56.8617 184.019 56.8961C184.081 56.9236 184.185 56.9511 184.325 56.9786C184.415 56.9992 184.498 57.0199 184.575 57.0473C184.786 57.1126 184.953 57.1951 185.075 57.2948C185.203 57.3877 185.269 57.5251 185.269 57.7073C185.269 57.9274 185.179 58.0992 185.005 58.2161C184.828 58.3364 184.592 58.3948 184.297 58.3948Z" fill="#8C52FF"/>
<path d="M186.629 58.4086C186.387 58.4086 186.178 58.3502 186.005 58.2298C185.838 58.1129 185.717 57.9514 185.643 57.7486C185.588 57.6042 185.56 57.4289 185.56 57.2261C185.56 57.0267 185.588 56.8549 185.643 56.7173C185.717 56.518 185.838 56.3599 186.005 56.2498C186.178 56.1329 186.387 56.0711 186.629 56.0711C186.869 56.0711 187.077 56.1329 187.255 56.2498C187.428 56.3702 187.55 56.518 187.616 56.6899C187.633 56.738 187.643 56.7827 187.643 56.8273V56.8411C187.643 56.8789 187.619 56.903 187.574 56.9098L187.116 56.9786H187.088C187.05 56.9786 187.033 56.9614 187.033 56.9236L187.019 56.8686C186.997 56.7964 186.953 56.738 186.879 56.6899C186.803 56.6348 186.72 56.6074 186.629 56.6074C186.525 56.6074 186.442 56.6314 186.379 56.6761C186.313 56.7242 186.269 56.7861 186.241 56.8686C186.213 56.9511 186.199 57.0714 186.199 57.2261C186.199 57.3842 186.213 57.5011 186.241 57.5836C186.269 57.6764 186.313 57.7486 186.379 57.8036C186.442 57.8517 186.525 57.8723 186.629 57.8723C186.72 57.8723 186.8 57.8517 186.866 57.8036C186.939 57.7486 186.984 57.6799 187.005 57.5974L187.019 57.5836C187.019 57.5664 187.025 57.5527 187.046 57.5423C187.063 57.5251 187.081 57.5149 187.102 57.5149L187.574 57.5836C187.591 57.5939 187.605 57.6076 187.616 57.6248C187.633 57.6352 187.637 57.6489 187.629 57.6661C187.629 57.7211 187.623 57.7589 187.616 57.7761C187.55 57.9686 187.425 58.1267 187.241 58.2436C187.063 58.3536 186.859 58.4086 186.629 58.4086Z" fill="#8C52FF"/>
<path d="M189.03 58.4086C188.77 58.4086 188.551 58.3467 188.377 58.2161C188.201 58.0786 188.079 57.8998 188.017 57.6799C187.968 57.5423 187.947 57.3911 187.947 57.2261C187.947 57.0542 187.968 56.903 188.017 56.7724C188.089 56.5523 188.214 56.3839 188.391 56.2636C188.565 56.1364 188.78 56.0711 189.03 56.0711C189.27 56.0711 189.478 56.1364 189.655 56.2636C189.829 56.3839 189.951 56.5489 190.017 56.7586C190.061 56.8961 190.086 57.0542 190.086 57.2261C190.086 57.3739 190.065 57.5217 190.03 57.6661C189.954 57.8964 189.829 58.0786 189.655 58.2161C189.478 58.3467 189.27 58.4086 189.03 58.4086ZM189.03 57.8723C189.121 57.8723 189.201 57.8449 189.267 57.7898C189.339 57.728 189.391 57.6455 189.419 57.5423C189.437 57.4598 189.447 57.3567 189.447 57.2261C189.447 57.1092 189.437 57.0061 189.419 56.9236C189.391 56.8239 189.339 56.7448 189.267 56.6899C189.201 56.6348 189.117 56.6074 189.017 56.6074C188.912 56.6074 188.829 56.6348 188.767 56.6899C188.701 56.7448 188.648 56.8239 188.613 56.9236C188.593 57.0061 188.586 57.1092 188.586 57.2261C188.586 57.3567 188.593 57.4598 188.613 57.5423C188.648 57.6455 188.701 57.728 188.767 57.7898C188.839 57.8449 188.926 57.8723 189.03 57.8723Z" fill="#8C52FF"/>
<path d="M190.575 58.3673C190.52 58.3673 190.492 58.3467 190.492 58.2986V55.3561C190.492 55.3114 190.52 55.2874 190.575 55.2874H191.047C191.093 55.2874 191.117 55.3114 191.117 55.3561V58.2986C191.117 58.3467 191.093 58.3673 191.047 58.3673H190.575Z" fill="#8C52FF"/>
<path d="M192.515 56.0711C192.699 56.0711 192.866 56.1055 193.015 56.1673C193.172 56.2327 193.293 56.3255 193.377 56.4424C193.46 56.5523 193.501 56.683 193.501 56.8273V58.2986C193.501 58.3467 193.477 58.3673 193.432 58.3673H192.96C192.905 58.3673 192.877 58.3467 192.877 58.2986V58.1886C192.877 58.1817 192.869 58.1749 192.863 58.1749C192.863 58.168 192.856 58.168 192.849 58.1749C192.71 58.333 192.505 58.4086 192.238 58.4086C192.005 58.4086 191.821 58.3536 191.682 58.2436C191.543 58.1267 191.474 57.9617 191.474 57.7486C191.474 57.5217 191.55 57.3464 191.71 57.2261C191.877 57.0989 192.106 57.0336 192.405 57.0336H192.849C192.866 57.0336 192.877 57.0267 192.877 57.0061V56.9098C192.877 56.8205 192.842 56.7448 192.779 56.6899C192.724 56.6348 192.641 56.6074 192.529 56.6074C192.435 56.6074 192.356 56.6211 192.293 56.6486C192.238 56.6761 192.199 56.7173 192.182 56.7724C192.161 56.8102 192.133 56.8273 192.099 56.8273L191.599 56.7724C191.578 56.7655 191.561 56.7551 191.543 56.7448C191.533 56.738 191.529 56.7242 191.529 56.7036C191.547 56.5867 191.599 56.4802 191.682 56.3873C191.773 56.2876 191.891 56.2086 192.029 56.1536C192.175 56.0986 192.339 56.0711 192.515 56.0711ZM192.418 57.9411C192.547 57.9411 192.655 57.9101 192.738 57.8449C192.828 57.7727 192.877 57.6867 192.877 57.5836V57.4324C192.877 57.4151 192.866 57.4048 192.849 57.4048H192.529C192.397 57.4048 192.293 57.4289 192.21 57.4736C192.133 57.5217 192.099 57.5905 192.099 57.6799C192.099 57.7624 192.127 57.8276 192.182 57.8723C192.245 57.9205 192.325 57.9411 192.418 57.9411Z" fill="#8C52FF"/>
<path d="M194.293 55.8923C194.171 55.8923 194.074 55.8613 194.001 55.7961C193.935 55.7238 193.904 55.6311 193.904 55.521C193.904 55.411 193.935 55.3251 194.001 55.2598C194.074 55.1876 194.171 55.1498 194.293 55.1498C194.404 55.1498 194.491 55.1876 194.557 55.2598C194.629 55.3251 194.668 55.411 194.668 55.521C194.668 55.6311 194.629 55.7238 194.557 55.7961C194.491 55.8613 194.404 55.8923 194.293 55.8923ZM194.057 58.3673C194.001 58.3673 193.973 58.3466 193.973 58.2985V56.181C193.973 56.1363 194.001 56.1123 194.057 56.1123H194.529C194.574 56.1123 194.599 56.1363 194.599 56.181V58.2985C194.599 58.3466 194.574 58.3673 194.529 58.3673H194.057Z" fill="#8C52FF"/>
<path d="M196.24 56.0711C196.331 56.0711 196.41 56.0917 196.476 56.1261C196.504 56.1467 196.511 56.1776 196.504 56.2223L196.421 56.6761C196.421 56.7036 196.41 56.7242 196.393 56.7311C196.383 56.7414 196.365 56.7414 196.337 56.7311C196.289 56.7242 196.247 56.7173 196.213 56.7173C196.185 56.7173 196.147 56.7173 196.101 56.7173C195.997 56.7277 195.91 56.7689 195.837 56.8411C195.761 56.9064 195.726 56.9992 195.726 57.1161V58.2986C195.726 58.3467 195.699 58.3673 195.643 58.3673H195.171C195.122 58.3673 195.101 58.3467 195.101 58.2986V56.1811C195.101 56.1364 195.122 56.1124 195.171 56.1124H195.643C195.699 56.1124 195.726 56.1364 195.726 56.1811V56.3186C195.726 56.3289 195.726 56.3392 195.726 56.3461C195.733 56.3461 195.743 56.3426 195.754 56.3323C195.872 56.1605 196.035 56.0711 196.24 56.0711Z" fill="#8C52FF"/>
<path d="M197.901 57.8723C198.095 57.8723 198.241 57.8105 198.345 57.6799C198.363 57.6626 198.38 57.6523 198.401 57.6523C198.418 57.6523 198.435 57.6592 198.456 57.6661L198.706 57.9136C198.724 57.9342 198.734 57.9514 198.734 57.9686C198.734 57.9892 198.727 58.003 198.72 58.0099C198.616 58.1405 198.487 58.2401 198.331 58.3123C198.182 58.3742 198.019 58.4086 197.845 58.4086C197.567 58.4086 197.338 58.3399 197.165 58.2023C196.987 58.058 196.866 57.8654 196.803 57.6248C196.765 57.4976 196.748 57.3601 196.748 57.2123C196.748 57.0473 196.765 56.9064 196.803 56.7861C196.859 56.5661 196.974 56.3942 197.151 56.2636C197.335 56.1364 197.547 56.0711 197.789 56.0711C198.085 56.0711 198.317 56.1605 198.484 56.3323C198.651 56.4973 198.762 56.7311 198.817 57.0336C198.825 57.1367 198.835 57.2467 198.845 57.3636C198.845 57.4117 198.817 57.4324 198.762 57.4324H197.401C197.38 57.4324 197.373 57.4426 197.373 57.4598C197.38 57.5251 197.391 57.5698 197.401 57.5974C197.435 57.6902 197.498 57.7589 197.581 57.8036C197.671 57.8517 197.779 57.8723 197.901 57.8723ZM197.789 56.6074C197.685 56.6074 197.602 56.6314 197.539 56.6761C197.484 56.7242 197.443 56.7861 197.415 56.8686C197.404 56.9236 197.394 56.9614 197.387 56.9786C197.387 56.9889 197.394 56.9923 197.415 56.9923H198.165C198.182 56.9923 198.193 56.9889 198.193 56.9786C198.193 56.9511 198.185 56.9201 198.179 56.8823C198.151 56.7998 198.102 56.738 198.039 56.6899C197.974 56.6348 197.891 56.6074 197.789 56.6074Z" fill="#8C52FF"/>
</g>
<defs>
<linearGradient id="paint0_linear_750_1215" x1="15.9361" y1="-5.23948" x2="47.7134" y2="72.6931" gradientUnits="userSpaceOnUse">
<stop stop-color="#FFDE59"/>
<stop offset="0.0625" stop-color="#FFDE59"/>
<stop offset="0.09375" stop-color="#FFDE59"/>
<stop offset="0.0976562" stop-color="#FEDD5B"/>
<stop offset="0.101562" stop-color="#FDDC5B"/>
<stop offset="0.105469" stop-color="#FDDB5C"/>
<stop offset="0.109375" stop-color="#FCDB5D"/>
<stop offset="0.113281" stop-color="#FCDA5E"/>
<stop offset="0.117188" stop-color="#FBD95F"/>
<stop offset="0.121094" stop-color="#FAD860"/>
<stop offset="0.125" stop-color="#FAD861"/>
<stop offset="0.128906" stop-color="#F9D762"/>
<stop offset="0.132812" stop-color="#F8D662"/>
<stop offset="0.136719" stop-color="#F8D563"/>
<stop offset="0.140625" stop-color="#F7D564"/>
<stop offset="0.144531" stop-color="#F7D465"/>
<stop offset="0.148438" stop-color="#F6D366"/>
<stop offset="0.152344" stop-color="#F5D267"/>
<stop offset="0.15625" stop-color="#F5D268"/>
<stop offset="0.160156" stop-color="#F4D169"/>
<stop offset="0.164062" stop-color="#F4D069"/>
<stop offset="0.167969" stop-color="#F3D06A"/>
<stop offset="0.171875" stop-color="#F2CF6B"/>
<stop offset="0.175781" stop-color="#F2CE6C"/>
<stop offset="0.179687" stop-color="#F1CD6D"/>
<stop offset="0.183594" stop-color="#F1CD6E"/>
<stop offset="0.1875" stop-color="#F0CC6F"/>
<stop offset="0.191406" stop-color="#EFCB70"/>
<stop offset="0.195312" stop-color="#EFCA70"/>
<stop offset="0.199219" stop-color="#EECA71"/>
<stop offset="0.203125" stop-color="#EEC972"/>
<stop offset="0.207031" stop-color="#EDC873"/>
<stop offset="0.210937" stop-color="#ECC774"/>
<stop offset="0.214844" stop-color="#ECC775"/>
<stop offset="0.21875" stop-color="#EBC676"/>
<stop offset="0.222656" stop-color="#EBC577"/>
<stop offset="0.226562" stop-color="#EAC477"/>
<stop offset="0.230469" stop-color="#E9C478"/>
<stop offset="0.234375" stop-color="#E9C379"/>
<stop offset="0.238281" stop-color="#E8C27A"/>
<stop offset="0.242188" stop-color="#E8C27B"/>
<stop offset="0.246094" stop-color="#E7C17C"/>
<stop offset="0.25" stop-color="#E6C07D"/>
<stop offset="0.253906" stop-color="#E6BF7E"/>
<stop offset="0.257812" stop-color="#E5BF7E"/>
<stop offset="0.261719" stop-color="#E4BE7F"/>
<stop offset="0.265625" stop-color="#E4BD80"/>
<stop offset="0.269531" stop-color="#E3BC81"/>
<stop offset="0.273438" stop-color="#E3BC82"/>
<stop offset="0.277344" stop-color="#E2BB83"/>
<stop offset="0.28125" stop-color="#E1BA84"/>
<stop offset="0.285156" stop-color="#E1B985"/>
<stop offset="0.289062" stop-color="#E0B985"/>
<stop offset="0.292969" stop-color="#E0B886"/>
<stop offset="0.296875" stop-color="#DFB787"/>
<stop offset="0.300781" stop-color="#DEB688"/>
<stop offset="0.304687" stop-color="#DEB689"/>
<stop offset="0.308594" stop-color="#DDB58A"/>
<stop offset="0.3125" stop-color="#DDB48B"/>
<stop offset="0.316406" stop-color="#DCB48C"/>
<stop offset="0.320312" stop-color="#DBB38C"/>
<stop offset="0.324219" stop-color="#DBB28D"/>
<stop offset="0.328125" stop-color="#DAB18E"/>
<stop offset="0.332031" stop-color="#DAB18F"/>
<stop offset="0.335938" stop-color="#D9B090"/>
<stop offset="0.339844" stop-color="#D8AF91"/>
<stop offset="0.34375" stop-color="#D8AE92"/>
<stop offset="0.347656" stop-color="#D7AE93"/>
<stop offset="0.351562" stop-color="#D7AD93"/>
<stop offset="0.355469" stop-color="#D6AC94"/>
<stop offset="0.359375" stop-color="#D5AB95"/>
<stop offset="0.363281" stop-color="#D5AB96"/>
<stop offset="0.367187" stop-color="#D4AA97"/>
<stop offset="0.371094" stop-color="#D4A998"/>
<stop offset="0.375" stop-color="#D3A899"/>
<stop offset="0.378906" stop-color="#D2A89A"/>
<stop offset="0.382812" stop-color="#D2A79A"/>
<stop offset="0.386719" stop-color="#D1A69B"/>
<stop offset="0.390625" stop-color="#D0A59C"/>
<stop offset="0.394531" stop-color="#D0A59D"/>
<stop offset="0.398438" stop-color="#CFA49E"/>
<stop offset="0.402344" stop-color="#CFA39F"/>
<stop offset="0.40625" stop-color="#CEA3A0"/>
<stop offset="0.410156" stop-color="#CDA2A1"/>
<stop offset="0.414062" stop-color="#CDA1A1"/>
<stop offset="0.417969" stop-color="#CCA0A2"/>
<stop offset="0.421875" stop-color="#CCA0A3"/>
<stop offset="0.425781" stop-color="#CB9FA4"/>
<stop offset="0.429688" stop-color="#CA9EA5"/>
<stop offset="0.433594" stop-color="#CA9DA6"/>
<stop offset="0.4375" stop-color="#C99DA7"/>
<stop offset="0.441406" stop-color="#C99CA7"/>
<stop offset="0.445312" stop-color="#C89BA8"/>
<stop offset="0.449219" stop-color="#C79AA9"/>
<stop offset="0.453125" stop-color="#C79AAA"/>
<stop offset="0.457031" stop-color="#C699AB"/>
<stop offset="0.460938" stop-color="#C698AC"/>
<stop offset="0.464844" stop-color="#C597AD"/>
<stop offset="0.46875" stop-color="#C497AE"/>
<stop offset="0.472656" stop-color="#C496AE"/>
<stop offset="0.476562" stop-color="#C395AF"/>
<stop offset="0.480469" stop-color="#C395B0"/>
<stop offset="0.484375" stop-color="#C294B1"/>
<stop offset="0.488281" stop-color="#C193B2"/>
<stop offset="0.492188" stop-color="#C192B3"/>
<stop offset="0.496094" stop-color="#C092B4"/>
<stop offset="0.5" stop-color="#C091B5"/>
<stop offset="0.503906" stop-color="#BF90B5"/>
<stop offset="0.507812" stop-color="#BE8FB6"/>
<stop offset="0.511719" stop-color="#BE8FB7"/>
<stop offset="0.515625" stop-color="#BD8EB8"/>
<stop offset="0.519531" stop-color="#BC8DB9"/>
<stop offset="0.523438" stop-color="#BC8CBA"/>
<stop offset="0.527344" stop-color="#BB8CBB"/>
<stop offset="0.53125" stop-color="#BB8BBC"/>
<stop offset="0.535156" stop-color="#BA8ABC"/>
<stop offset="0.539062" stop-color="#B989BD"/>
<stop offset="0.542969" stop-color="#B989BE"/>
<stop offset="0.546875" stop-color="#B888BF"/>
<stop offset="0.550781" stop-color="#B887C0"/>
<stop offset="0.554688" stop-color="#B786C1"/>
<stop offset="0.558594" stop-color="#B686C2"/>
<stop offset="0.5625" stop-color="#B685C3"/>
<stop offset="0.566406" stop-color="#B584C3"/>
<stop offset="0.570312" stop-color="#B584C4"/>
<stop offset="0.574219" stop-color="#B483C5"/>
<stop offset="0.578125" stop-color="#B382C6"/>
<stop offset="0.582031" stop-color="#B381C7"/>
<stop offset="0.585938" stop-color="#B281C8"/>
<stop offset="0.589844" stop-color="#B280C9"/>
<stop offset="0.59375" stop-color="#B17FCA"/>
<stop offset="0.597656" stop-color="#B07ECA"/>
<stop offset="0.601562" stop-color="#B07ECB"/>
<stop offset="0.605469" stop-color="#AF7DCC"/>
<stop offset="0.609375" stop-color="#AF7CCD"/>
<stop offset="0.613281" stop-color="#AE7BCE"/>
<stop offset="0.617187" stop-color="#AD7BCF"/>
<stop offset="0.621094" stop-color="#AD7AD0"/>
<stop offset="0.625" stop-color="#AC79D1"/>
<stop offset="0.628906" stop-color="#AC78D1"/>
<stop offset="0.632812" stop-color="#AB78D2"/>
<stop offset="0.636719" stop-color="#AA77D3"/>
<stop offset="0.640625" stop-color="#AA76D4"/>
<stop offset="0.644531" stop-color="#A976D5"/>
<stop offset="0.648438" stop-color="#A875D6"/>
<stop offset="0.652344" stop-color="#A874D7"/>
<stop offset="0.65625" stop-color="#A773D8"/>
<stop offset="0.660156" stop-color="#A773D8"/>
<stop offset="0.664062" stop-color="#A672D9"/>
<stop offset="0.667969" stop-color="#A571DA"/>
<stop offset="0.671875" stop-color="#A570DB"/>
<stop offset="0.675781" stop-color="#A470DC"/>
<stop offset="0.679688" stop-color="#A46FDD"/>
<stop offset="0.683594" stop-color="#A36EDE"/>
<stop offset="0.6875" stop-color="#A26DDF"/>
<stop offset="0.691406" stop-color="#A26DDF"/>
<stop offset="0.695312" stop-color="#A16CE0"/>
<stop offset="0.699219" stop-color="#A16BE1"/>
<stop offset="0.703125" stop-color="#A06AE2"/>
<stop offset="0.707031" stop-color="#9F6AE3"/>
<stop offset="0.710937" stop-color="#9F69E4"/>
<stop offset="0.714844" stop-color="#9E68E5"/>
<stop offset="0.71875" stop-color="#9E68E6"/>
<stop offset="0.722656" stop-color="#9D67E6"/>
<stop offset="0.726562" stop-color="#9C66E7"/>
<stop offset="0.730469" stop-color="#9C65E8"/>
<stop offset="0.734375" stop-color="#9B65E9"/>
<stop offset="0.738281" stop-color="#9B64EA"/>
<stop offset="0.742188" stop-color="#9A63EB"/>
<stop offset="0.746094" stop-color="#9962EC"/>
<stop offset="0.75" stop-color="#9962ED"/>
<stop offset="0.753906" stop-color="#9861ED"/>
<stop offset="0.757812" stop-color="#9860EE"/>
<stop offset="0.761719" stop-color="#975FEF"/>
<stop offset="0.765625" stop-color="#965FF0"/>
<stop offset="0.769531" stop-color="#965EF1"/>
<stop offset="0.773438" stop-color="#955DF2"/>
<stop offset="0.777344" stop-color="#945CF3"/>
<stop offset="0.78125" stop-color="#945CF4"/>
<stop offset="0.785156" stop-color="#935BF4"/>
<stop offset="0.789062" stop-color="#935AF5"/>
<stop offset="0.792969" stop-color="#9259F6"/>
<stop offset="0.796875" stop-color="#9159F7"/>
<stop offset="0.800781" stop-color="#9158F8"/>
<stop offset="0.804688" stop-color="#9057F9"/>
<stop offset="0.808594" stop-color="#9057FA"/>
<stop offset="0.8125" stop-color="#8F56FB"/>
<stop offset="0.816406" stop-color="#8E55FB"/>
<stop offset="0.820312" stop-color="#8E54FC"/>
<stop offset="0.824219" stop-color="#8D54FD"/>
<stop offset="0.828125" stop-color="#8D53FE"/>
<stop offset="0.84375" stop-color="#8C52FF"/>
<stop offset="0.875" stop-color="#8C52FF"/>
<stop offset="1" stop-color="#8C52FF"/>
</linearGradient>
<clipPath id="clip0_750_1215">
<rect width="200" height="66" fill="white" transform="translate(0.333344 0.963745)"/>
</clipPath>
</defs>
</svg>
